<svg xmlns="http://www.w3.org/2000/svg" xmlns:xlink="http://www.w3.org/1999/xlink" xmlns:lucid="lucid" width="1760" height="1360"><g transform="translate(0 0)" lucid:page-tab-id="0_0"><path d="M453.3 76c0-4.42 3.58-8 8-8h836.75c4.42 0 8 3.58 8 8v25.16c0 4.4-3.58 8-8 8H461.3c-4.42 0-8-3.6-8-8z" stroke="#000" stroke-opacity="0" stroke-width="2" fill="#fff" fill-opacity="0"/><use xlink:href="#a" transform="matrix(1,0,0,1,457.2972147643302,72) translate(227.35876543209878 25.782777777777778)"/><use xlink:href="#b" transform="matrix(1,0,0,1,457.2972147643302,72) translate(344.92172839506173 25.782777777777778)"/><use xlink:href="#c" transform="matrix(1,0,0,1,457.2972147643302,72) translate(445.3674074074074 25.782777777777778)"/><use xlink:href="#d" transform="matrix(1,0,0,1,457.2972147643302,72) translate(499.12296296296296 25.782777777777778)"/><use xlink:href="#e" transform="matrix(1,0,0,1,457.2972147643302,72) translate(583.5439506172839 25.782777777777778)"/><use xlink:href="#f" transform="matrix(1,0,0,1,457.2972147643302,72) translate(599.4958024691358 25.782777777777778)"/><path d="M681.13 107.8h405.96M681.16 107.8h-1.03M1087.06 107.8h1.03" stroke="#a9afb8" stroke-width="2" fill="none"/><path d="M453.3 117.16c0-4.42 3.58-8 8-8H1299c4.42 0 8 3.58 8 8V120c0 4.42-3.58 8-8 8H461.3c-4.42 0-8-3.58-8-8z" stroke="#000" stroke-opacity="0" stroke-width="2" fill="#fff" fill-opacity="0"/><use xlink:href="#g" transform="matrix(1,0,0,1,457.29721476433065,113.15522395689881) translate(348.7237860082305 14.917037037037037)"/><use xlink:href="#h" transform="matrix(1,0,0,1,457.29721476433065,113.15522395689881) translate(400.56123456790124 14.917037037037037)"/><use xlink:href="#i" transform="matrix(1,0,0,1,457.29721476433065,113.15522395689881) translate(413.0107201646091 14.917037037037037)"/><use xlink:href="#j" transform="matrix(1,0,0,1,457.29721476433065,113.15522395689881) translate(444.4106172839506 14.917037037037037)"/><use xlink:href="#k" transform="matrix(1,0,0,1,457.29721476433065,113.15522395689881) translate(469.9044444444445 14.917037037037037)"/><path d="M380 221.68h1320V1200H380z" stroke="#232f3e" stroke-width="2" fill="#fff" fill-opacity="0"/><path d="M380 221.68h56v56h-56v-56z" stroke="#fff" stroke-opacity="0" fill="#232f3e"/><path d="M420.88 262.9h-25c-4.13.05-7.57-3.1-7.9-7.2v-.64c-.15-3.4 1.97-6.38 5.25-7.36v-.66c.12-4.22 2.44-7.75 6.24-9.57 4.12-1.85 8.73-.95 11.8 2.32 1.1 1.07 1.85 2.18 2.45 3.57 1.2-1 2.72-1.3 4.24-.9 2.24.8 3.68 2.75 3.76 5.1 3.68.66 6.32 3.8 6.28 7.57 0 7.07-7.04 7.73-7.12 7.75zM394.18 249c-2.83.6-4.75 3.14-4.6 6.04v.53c.3 3.3 3.1 5.82 6.4 5.74h24.98c3.04-.3 5.4-2.64 5.68-5.7.28-3.43-2.24-6.5-5.68-6.78-.44-.05-.72-.45-.64-.87.08-1.86-1-3.46-2.72-4.15-1.32-.37-2.64.13-3.44 1.24-.2.23-.44.36-.76.3-.28-.05-.48-.23-.6-.5-.6-1.6-1.4-2.84-2.6-4.03-2.68-2.8-6.6-3.6-10.13-2-3.24 1.6-5.2 4.64-5.32 8.25-.04.4-.04.74 0 1.13.04.4-.2.77-.6.85z" stroke="#fff" stroke-opacity="0" fill="#fff"/><use xlink:href="#l" transform="matrix(1,0,0,1,451,241.6771889665397) translate(0 14.4)"/><use xlink:href="#m" transform="matrix(1,0,0,1,451,241.6771889665397) translate(45.3 14.4)"/><path d="M453.3 295.93H1600V640H453.3z" stroke="#248814" stroke-width="2" fill="#fff" fill-opacity="0"/><path d="M453.3 295.93h56v56h-56v-56z" stroke="#fff" stroke-opacity="0" fill="#248814"/><path d="M485.06 324.23h-1.2v-1.1c-.1-1.73-1.46-3.08-3.18-3.2-1.9-.13-3.54 1.3-3.67 3.2v1.07h-1.17c-.45 0-.8.36-.8.8v6.12c0 .45.35.8.8.8h9.23c.44 0 .8-.35.8-.8v-6.08c0-.45-.36-.8-.8-.8zm-6.4-1.07c.1-1.02 1-1.76 2-1.66.9.08 1.58.76 1.67 1.66v1.07h-3.72zm5.65 7.1h-7.67v-4.43h7.62z" stroke="#fff" stroke-opacity="0" fill="#fff"/><path d="M495.57 321.67c-.1-2.44-1.6-4.47-3.87-5.3-1.6-.46-3.17-.13-4.42.9-.66-1.45-1.45-2.6-2.57-3.75-3.24-3.35-7.94-4.28-12.2-2.4-4.02 1.9-6.4 5.64-6.52 10.06v.7c-3.4.97-5.66 4.08-5.5 7.64v.64c.38 4.28 3.92 7.52 8.2 7.46h26s7.42-.63 7.42-8.1c.04-3.9-2.66-7.2-6.53-7.85zm-.96 14.4h-25.9c-3.47.04-6.3-2.54-6.6-5.97v-.52c-.16-3.05 1.92-5.7 4.92-6.3.38-.12.62-.48.58-.9-.04-.4-.04-.73 0-1.15.1-3.8 2.13-6.94 5.54-8.6 1.25-.57 2.4-.8 3.83-.84 2.62.07 4.86 1.03 6.7 2.93 1.24 1.3 2.03 2.6 2.62 4.3.03.14.1.28.24.36.37.27.87.2 1.12-.17.83-1.18 2.25-1.68 3.62-1.3 1.8.72 2.87 2.4 2.83 4.32-.07.4.22.82.63.9 3.58.36 6.2 3.55 5.83 7.12-.3 3.13-2.7 5.5-5.83 5.84z" stroke="#fff" stroke-opacity="0" fill="#fff"/><use xlink:href="#n" transform="matrix(1,0,0,1,524.2972147642868,315.92797354829963) translate(0 14.4)"/><use xlink:href="#o" transform="matrix(1,0,0,1,524.2972147642868,315.92797354829963) translate(41.95 14.4)"/><path d="M453.3 780H1600v355.58H453.3z" stroke="#248814" stroke-width="2" fill="#fff" fill-opacity="0"/><path d="M453.3 780h56v56h-56v-56z" stroke="#fff" stroke-opacity="0" fill="#248814"/><path d="M485.06 808.3h-1.2v-1.1c-.1-1.73-1.46-3.07-3.18-3.2-1.9-.13-3.54 1.3-3.67 3.2v1.07h-1.17c-.45 0-.8.36-.8.8v6.13c0 .44.35.8.8.8h9.23c.44 0 .8-.36.8-.8v-6.1c0-.44-.36-.8-.8-.8zm-6.4-1.06c.1-1.02 1-1.77 2-1.67.9.08 1.58.77 1.67 1.67v1.06h-3.72zm5.65 7.08h-7.67v-4.42h7.62z" stroke="#fff" stroke-opacity="0" fill="#fff"/><path d="M495.57 805.74c-.1-2.44-1.6-4.47-3.87-5.3-1.6-.46-3.17-.13-4.42.9-.66-1.44-1.45-2.6-2.57-3.75-3.24-3.36-7.94-4.3-12.2-2.4-4.02 1.9-6.4 5.63-6.52 10.05v.7c-3.4.98-5.66 4.08-5.5 7.65v.63c.38 4.28 3.92 7.52 8.2 7.47h26s7.42-.63 7.42-8.1c.04-3.9-2.66-7.2-6.53-7.86zm-.96 14.4h-25.9c-3.47.05-6.3-2.53-6.6-5.97v-.52c-.16-3.05 1.92-5.7 4.92-6.3.38-.12.62-.48.58-.9-.04-.4-.04-.73 0-1.14.1-3.78 2.13-6.94 5.54-8.6 1.25-.56 2.4-.8 3.83-.84 2.62.08 4.86 1.04 6.7 2.94 1.24 1.3 2.03 2.6 2.62 4.3.03.15.1.28.24.37.37.27.87.2 1.12-.17.83-1.18 2.25-1.67 3.62-1.3 1.8.72 2.87 2.4 2.83 4.32-.07.4.22.82.63.9 3.58.36 6.2 3.55 5.83 7.12-.3 3.13-2.7 5.52-5.83 5.85z" stroke="#fff" stroke-opacity="0" fill="#fff"/><use xlink:href="#n" transform="matrix(1,0,0,1,524.2972147643306,800) translate(0 14.4)"/><use xlink:href="#p" transform="matrix(1,0,0,1,524.2972147643306,800) translate(41.95 14.4)"/><path d="M540 341.68h1000v280H540z" fill="#fff" fill-opacity="0"/><path d="M551.9 341.68h7.94m7.94 0h7.93m7.95 0h7.94m7.92 0h7.94m7.94 0h7.93m7.94 0h7.94m7.94 0h7.94m7.94 0h7.93m7.94 0h7.93m7.93 0h7.94m7.93 0h7.94m7.94 0h7.94m7.94 0h7.94m7.93 0h7.94m7.93 0h7.93m7.94 0h7.94m7.93 0h7.94m7.95 0h7.93m7.94 0h7.94m7.93 0h7.93m7.94 0h7.93m7.94 0h7.93m7.94 0h7.95m7.93 0h7.94m7.94 0h7.93m7.93 0h7.94m7.93 0h7.94m7.94 0h7.93m7.95 0h7.94m7.92 0h7.94m7.94 0h7.93m7.94 0h7.93m7.94 0h7.94m7.93 0h7.95m7.94 0h7.92m7.94 0h7.94m7.93 0h7.94m7.94 0h7.94m7.94 0h7.94m7.93 0h7.94m7.93 0h7.93m7.94 0h7.93m7.94 0h7.94m7.94 0h7.94m7.94 0h7.93m7.94 0h7.93m7.93 0h7.94m7.94 0h7.93m7.94 0h7.95m7.93 0h7.94m7.94 0h7.93m7.93 0h7.94m7.93 0h7.94m7.93 0h7.94m7.95 0h7.93m7.94 0h7.94m7.93 0h7.93m7.94 0h7.93m7.94 0h7.94m7.93 0h7.95m7.94 0h7.92m7.94 0h7.94m7.93 0h3.97v3.9m0 7.76v7.78m0 7.78v7.78m0 7.77v7.78m0 7.78v7.8m0 7.77v7.77m0 7.78v7.78m0 7.78v7.77m0 7.78V470m0 7.8v7.77m0 7.77v7.78m0 7.78v7.78m0 7.77v7.78m0 7.78v7.8m0 7.77v7.77m0 7.78v7.78m0 7.78v7.77m0 7.78V610m0 7.8v3.88h-3.97m-7.93 0h-7.94m-7.94 0h-7.93m-7.95 0h-7.94m-7.92 0h-7.94m-7.94 0h-7.93m-7.94 0h-7.94m-7.94 0h-7.94m-7.94 0h-7.93m-7.94 0h-7.93m-7.93 0h-7.94m-7.93 0h-7.94m-7.94 0h-7.94m-7.94 0h-7.94m-7.93 0h-7.94m-7.93 0h-7.93m-7.94 0h-7.94m-7.93 0h-7.94m-7.95 0h-7.93m-7.94 0h-7.94m-7.93 0h-7.93m-7.94 0h-7.93m-7.94 0h-7.93m-7.94 0h-7.95m-7.93 0h-7.94m-7.94 0h-7.93m-7.93 0h-7.94m-7.93 0h-7.94m-7.94 0h-7.93m-7.95 0h-7.94m-7.92 0h-7.94m-7.94 0h-7.93m-7.94 0h-7.93m-7.94 0h-7.94m-7.93 0h-7.95m-7.94 0h-7.92m-7.94 0h-7.94m-7.93 0h-7.94m-7.94 0h-7.94m-7.94 0h-7.94m-7.93 0h-7.94m-7.93 0h-7.93m-7.94 0h-7.93m-7.94 0h-7.94m-7.94 0h-7.94m-7.94 0h-7.93m-7.94 0h-7.93m-7.93 0H790m-7.94 0h-7.93m-7.94 0h-7.95m-7.93 0h-7.94m-7.94 0h-7.93m-7.93 0h-7.94m-7.93 0h-7.94m-7.93 0h-7.94m-7.95 0h-7.93m-7.94 0h-7.94m-7.93 0h-7.93m-7.94 0h-7.93m-7.94 0h-7.94m-7.93 0h-7.95m-7.94 0h-7.92m-7.94 0h-7.94m-7.93 0H540v-3.9m0-7.77v-7.77m0-7.78v-7.77m0-7.78v-7.78m0-7.78v-7.77m0-7.78V540m0-7.77v-7.78m0-7.77v-7.78m0-7.78v-7.78m0-7.77v-7.78m0-7.8v-7.77m0-7.78v-7.77m0-7.78v-7.78m0-7.78v-7.77m0-7.78V400m0-7.77v-7.78m0-7.77v-7.78m0-7.78v-7.78m0-7.77v-3.9h3.97" stroke="#5a6c86" stroke-width="2" fill="none"/><use xlink:href="#q" transform="matrix(1,0,0,1,540,361.67718896654003) translate(482.5 14.4)"/><path d="M540 341.68h54.17v54.17H540v-54.17z" stroke="#fff" stroke-opacity="0" stroke-width="2" fill="#d86613"/><path d="M567.1 388.27c-.15 0-.25-.04-.38-.07l-16.6-9.6c-.24-.16-.37-.36-.37-.63v-19.2c0-.27.13-.5.37-.62l15.17-8.78c.23-.16.46-.16.7 0 .22.1.36.35.36.62v8.3c0 .28-.14.47-.37.63l-7.58 4.4v10.04l8.67 5 7.56-4.34c.23-.12.5-.12.7 0l7.24 4.17c.33.2.46.63.26.98-.07.12-.13.2-.26.27l-15.15 8.75c-.13.03-.23.07-.36.07zm-15.9-10.73l15.9 9.17 13.7-7.9-5.78-3.37-7.57 4.4c-.23.13-.5.13-.73 0l-9.4-5.4c-.23-.17-.36-.36-.36-.63v-10.85c0-.28.13-.5.36-.63l7.6-4.4v-6.68l-13.7 7.92z" stroke="#fff" stroke-opacity="0" stroke-width="2" fill="#fff"/><path d="M583.7 377.02c-.13 0-.24-.03-.36-.08l-7.22-4.16c-.24-.13-.35-.38-.34-.63v-8.8l-7.6-4.33c-.24-.13-.37-.36-.37-.63v-8.35c0-.27.14-.5.37-.63.24-.1.5-.1.72 0l15.16 8.72c.23.14.36.36.36.63v17.53c0 .4-.3.72-.7.72zm-6.5-5.3l5.78 3.33V359.2l-13.73-7.9v6.67l7.58 4.35c.23.1.37.33.37.6z" stroke="#fff" stroke-opacity="0" stroke-width="2" fill="#fff"/><path d="M563.48 373.8V363h1.44v4.93l4.7-4.92h1.9l-4.9 5.27 5.33 5.56h-1.98l-5.05-5.05v5.06z" stroke="#fff" stroke-opacity="0" stroke-width="2" fill="#fff"/><path d="M779.1 660h54.16v54.17H779.1V660z" stroke="#fff" stroke-opacity="0" stroke-width="2" fill="#693cc5"/><path d="M795.34 679.68h-6.5c-.4 0-.72.32-.72.72v23.13c0 .4.32.7.72.7h6.5c.4 0 .72-.3.72-.7V680.4c0-.4-.32-.72-.72-.72zm-.73 23.1h-5.04v-21.65h5.05zM805.45 699.48v4.04c0 .4-.32.72-.72.72h-6.5c-.4 0-.72-.33-.72-.72v-12.46c.25 1.4.7 2.57 1.45 3.78v7.95H804V699c.5.22.93.36 1.45.48zM805.45 676.08v2.55c-.52.14-.95.3-1.45.5v-2.34h-5.05v6.5c-.75 1.2-1.2 2.37-1.44 3.78v-11c0-.4.33-.73.73-.73h6.5c.4 0 .72.33.72.73zM813.4 700.08v2.7h-5.06v-2.87c-.5 0-.94-.03-1.44-.1v3.7c0 .43.32.74.72.74h6.5c.4 0 .72-.3.72-.73v-2zm.72-30.5h-6.5c-.4 0-.72.3-.72.72v8.04c.5-.07.93-.1 1.44-.1v-7.2h5.06v8.45c.53.3.96.58 1.44.92V670.3c0-.42-.32-.73-.72-.73zM823.5 673.18H817c-.4 0-.7.33-.7.73v7.84c.57.63 1 1.23 1.43 1.98v-9.08h5.05v22.2l1.45 1.44V673.9c0-.4-.32-.72-.72-.72z" stroke="#fff" stroke-opacity="0" stroke-width="2" fill="#fff"/><path d="M823.35 699.48l-6.5-6.5c1.26-2.76 1.2-5.63-.23-8.32-2.43-4.57-8.1-6.32-12.68-3.9-4.58 2.42-6.35 8.1-3.92 12.68 2.43 4.6 8.1 6.34 12.7 3.92l6.38 6.4c1.2 1.16 3.1 1.16 4.25 0 1.2-1.18 1.2-3.08 0-4.25zm-22.95-10.43c0-4.37 3.54-7.94 7.94-7.94 4.38 0 7.95 3.58 7.95 7.95 0 4.4-3.58 7.96-7.96 7.96-4.4 0-7.94-3.56-7.94-7.95zm21.94 13.65c-.6.6-1.6.6-2.23 0l-6.14-6.16c.9-.65 1.55-1.35 2.18-2.27l6.2 6.24c.6.6.6 1.6 0 2.2z" stroke="#fff" stroke-opacity="0" stroke-width="2" fill="#fff"/><path d="M805.14 692.5c-2.1-1.5-2.58-4.4-1.08-6.5 1.5-2.1 4.4-2.58 6.5-1.1l.13.1-.87 1.17c-1.42-1.06-3.44-.76-4.5.67-1.06 1.43-.76 3.45.67 4.5z" stroke="#fff" stroke-opacity="0" stroke-width="2" fill="#fff"/><use xlink:href="#r" transform="matrix(1,0,0,1,749.0866141732283,723.1732283464567) translate(24.525 14.4)"/><use xlink:href="#s" transform="matrix(1,0,0,1,749.0866141732283,723.1732283464567) translate(4.074999999999996 36)"/><use xlink:href="#t" transform="matrix(1,0,0,1,749.0866141732283,723.1732283464567) translate(21.775 57.6)"/><use xlink:href="#u" transform="matrix(1,0,0,1,749.0866141732283,723.1732283464567) translate(37.275 57.6)"/><path d="M540 840h1000v280H540z" fill="#fff" fill-opacity="0"/><path d="M551.9 840h7.94m7.94 0h7.93m7.95 0h7.94m7.92 0h7.94m7.94 0h7.93m7.94 0h7.94m7.94 0h7.94m7.94 0h7.93m7.94 0h7.93m7.93 0h7.94m7.93 0h7.94m7.94 0h7.94m7.94 0h7.94m7.93 0h7.94m7.93 0h7.93m7.94 0h7.94m7.93 0h7.94m7.95 0h7.93m7.94 0h7.94m7.93 0h7.93m7.94 0h7.93m7.94 0h7.93m7.94 0h7.95m7.93 0h7.94m7.94 0h7.93m7.93 0h7.94m7.93 0h7.94m7.94 0h7.93m7.95 0h7.94m7.92 0h7.94m7.94 0h7.93m7.94 0h7.93m7.94 0h7.94m7.93 0h7.95m7.94 0h7.92m7.94 0h7.94m7.93 0h7.94m7.94 0h7.94m7.94 0h7.94m7.93 0h7.94m7.93 0h7.93m7.94 0h7.93m7.94 0h7.94m7.94 0h7.94m7.94 0h7.93m7.94 0h7.93m7.93 0h7.94m7.94 0h7.93m7.94 0h7.95m7.93 0h7.94m7.94 0h7.93m7.93 0h7.94m7.93 0h7.94m7.93 0h7.94m7.95 0h7.93m7.94 0h7.94m7.93 0h7.93m7.94 0h7.93m7.94 0h7.94m7.93 0h7.95m7.94 0h7.92m7.94 0h7.94m7.93 0h3.97v3.9m0 7.77v7.77m0 7.78V875m0 7.78v7.78m0 7.77v7.78m0 7.8v7.77m0 7.77v7.78m0 7.78v7.78m0 7.78v7.77m0 7.78v7.8m0 7.77v7.77m0 7.78v7.78m0 7.78v7.78m0 7.77v7.78m0 7.8v7.77m0 7.77v7.78m0 7.78v7.78m0 7.78v7.77m0 7.78v3.9h-3.97m-7.93 0h-7.94m-7.94 0h-7.93m-7.95 0h-7.94m-7.92 0h-7.94m-7.94 0h-7.93m-7.94 0h-7.94m-7.94 0h-7.94m-7.94 0h-7.93m-7.94 0h-7.93m-7.93 0h-7.94m-7.93 0h-7.94m-7.94 0h-7.94m-7.94 0h-7.94m-7.93 0h-7.94m-7.93 0h-7.93m-7.94 0h-7.94m-7.93 0h-7.94m-7.95 0h-7.93m-7.94 0h-7.94m-7.93 0h-7.93m-7.94 0h-7.93m-7.94 0h-7.93m-7.94 0h-7.95m-7.93 0h-7.94m-7.94 0h-7.93m-7.93 0h-7.94m-7.93 0h-7.94m-7.94 0h-7.93m-7.95 0h-7.94m-7.92 0h-7.94m-7.94 0h-7.93m-7.94 0h-7.93m-7.94 0h-7.94m-7.93 0h-7.95m-7.94 0h-7.92m-7.94 0h-7.94m-7.93 0h-7.94m-7.94 0h-7.94m-7.94 0h-7.94m-7.93 0h-7.94m-7.93 0h-7.93m-7.94 0h-7.93m-7.94 0h-7.94m-7.94 0h-7.94m-7.94 0h-7.93m-7.94 0h-7.93m-7.93 0H790m-7.94 0h-7.93m-7.94 0h-7.95m-7.93 0h-7.94m-7.94 0h-7.93m-7.93 0h-7.94m-7.93 0h-7.94m-7.93 0h-7.94m-7.95 0h-7.93m-7.94 0h-7.94m-7.93 0h-7.93m-7.94 0h-7.93m-7.94 0h-7.94m-7.93 0h-7.95m-7.94 0h-7.92m-7.94 0h-7.94m-7.93 0H540v-3.9m0-7.77v-7.77m0-7.78V1085m0-7.78v-7.78m0-7.77v-7.78m0-7.8v-7.77m0-7.77v-7.78m0-7.78v-7.78m0-7.78v-7.77m0-7.78v-7.8m0-7.77v-7.77m0-7.78V945m0-7.78v-7.78m0-7.77v-7.78m0-7.8v-7.77m0-7.77v-7.78m0-7.78v-7.78m0-7.78v-7.77m0-7.78V840h3.97" stroke="#5a6c86" stroke-width="2" fill="none"/><use xlink:href="#q" transform="matrix(1,0,0,1,540,860) translate(482.5 14.4)"/><path d="M540 840h54.17v54.17H540V840z" stroke="#fff" stroke-opacity="0" stroke-width="2" fill="#d86613"/><path d="M567.1 886.6c-.15 0-.25-.04-.38-.08l-16.6-9.6c-.24-.16-.37-.35-.37-.63v-19.2c0-.28.13-.5.37-.63l15.17-8.78c.23-.17.46-.17.7 0 .22.1.36.34.36.6v8.33c0 .27-.14.46-.37.62l-7.58 4.4v10.04l8.67 4.98 7.56-4.33c.23-.1.5-.1.7 0l7.24 4.18c.33.2.46.62.26.97-.07.12-.13.2-.26.28l-15.15 8.74c-.13.04-.23.08-.36.08zm-15.9-10.74l15.9 9.18 13.7-7.93-5.78-3.34-7.57 4.4c-.23.12-.5.12-.73 0l-9.4-5.42c-.23-.15-.36-.35-.36-.62v-10.85c0-.27.13-.5.36-.63l7.6-4.4v-6.68l-13.7 7.92z" stroke="#fff" stroke-opacity="0" stroke-width="2" fill="#fff"/><path d="M583.7 875.34c-.13 0-.24-.03-.36-.08l-7.22-4.15c-.24-.13-.35-.38-.34-.63v-8.8l-7.6-4.32c-.24-.14-.37-.36-.37-.64v-8.32c0-.28.14-.5.37-.64.24-.1.5-.1.72 0l15.16 8.72c.23.14.36.36.36.64v17.52c0 .4-.3.72-.7.72zm-6.5-5.3l5.78 3.34V857.5l-13.73-7.88v6.67l7.58 4.34c.23.1.37.33.37.6z" stroke="#fff" stroke-opacity="0" stroke-width="2" fill="#fff"/><path d="M563.48 872.14V861.3h1.44v4.93l4.7-4.93h1.9l-4.9 5.28 5.33 5.56h-1.98l-5.05-5.06v5.06z" stroke="#fff" stroke-opacity="0" stroke-width="2" fill="#fff"/><path d="M1426.93 456.02c-.5.05-.92.15-1.33.36l-17.8 8.77c-.98.47-1.65 1.3-1.86 2.37l-4.4 19.75c-.22.93-.06 1.85.45 2.67.04.1.1.15.2.26l12.3 15.8c.68.87 1.6 1.34 2.68 1.34h19.8c1.1 0 2-.47 2.68-1.34l12.32-15.8c.66-.88.92-1.9.66-2.98l-4.4-19.7c-.22-1.08-.88-1.9-1.86-2.37l-17.8-8.77c-.57-.26-1.08-.4-1.65-.36z" stroke="#000" stroke-opacity="0" stroke-width="3.83" fill="#326ce5"/><path d="M1426.92 454.6c-.54.04-.97.15-1.4.37l-18.8 9.26c-1.03.5-1.74 1.36-1.95 2.5l-4.66 20.85c-.2.98-.05 1.95.5 2.82.05.1.1.16.2.27l13 16.7c.72.9 1.7 1.4 2.83 1.4h20.9c1.15 0 2.12-.5 2.83-1.4l13-16.7c.7-.92.98-2 .7-3.1l-4.65-20.84c-.2-1.14-.9-2-1.94-2.5l-18.8-9.26c-.6-.27-1.14-.43-1.74-.38zm0 1.45c.6-.05 1.1.06 1.63.33l17.88 8.77c.92.5 1.57 1.3 1.84 2.4l4.4 19.7c.2 1.1 0 2.07-.66 2.93L1439.66 506c-.65.87-1.57 1.36-2.65 1.36h-19.83c-1.08 0-2-.5-2.65-1.36l-12.35-15.82c-.06-.05-.1-.16-.17-.27-.54-.8-.7-1.67-.48-2.64l4.38-19.72c.28-1.1.87-1.9 1.85-2.4l17.87-8.76c.44-.22.82-.33 1.3-.38z" stroke="#000" stroke-opacity="0" stroke-width="3.83" fill="#fff"/><path d="M1424.4 500.67c0 1.6-.56 2.4-1.66 2.4-.7 0-1.15-.25-1.4-.8v2.54h-.74v-5.48c0-.47 0-.8-.02-.94h.72v.12c.02.07.02.18.03.33v.3h.03c.13-.3.3-.5.52-.63.22-.14.5-.2.86-.2.56 0 .97.2 1.24.57.27.38.4.98.4 1.8zm-.8 0c0-.63-.08-1.1-.24-1.36-.18-.27-.44-.4-.8-.4-.3 0-.53.06-.7.2-.17.1-.3.3-.38.6-.1.25-.13.6-.13 1.04 0 .6.1 1.05.28 1.34.2.3.5.43.9.43.38 0 .65-.13.82-.4.17-.3.26-.75.26-1.42zM1429.1 500.68c0 .8-.16 1.42-.5 1.8-.35.4-.86.6-1.5.6-.67 0-1.16-.2-1.5-.6-.33-.43-.5-1.02-.5-1.8 0-1.6.67-2.38 2-2.38.7 0 1.2.2 1.52.58.33.4.5 1 .5 1.8zm-.77 0c0-.63-.1-1.1-.28-1.38-.18-.3-.5-.43-.92-.43-.44 0-.76.14-.95.44-.2.3-.3.76-.3 1.38 0 .6.1 1.07.3 1.38.2.3.5.45.9.45.45 0 .77-.13.95-.43.2-.3.3-.76.3-1.4zM1432.86 502.25c-.13.3-.32.5-.55.64-.2.12-.5.18-.83.18-.57 0-.98-.2-1.25-.6-.26-.38-.4-.98-.4-1.77 0-1.6.55-2.4 1.65-2.4.34 0 .62.06.85.2.22.12.4.32.54.6V496.67h.75v5.37c0 .48.02.8.03.96h-.7c-.02-.05-.02-.15-.04-.32l-.02-.43zm-2.26-1.57c0 .65.1 1.1.25 1.4.17.27.44.4.8.4.43 0 .74-.14.93-.44.2-.3.28-.77.28-1.4 0-.62-.1-1.07-.28-1.35-.2-.3-.5-.44-.9-.44s-.66.15-.83.44c-.16.28-.25.74-.25 1.38z" stroke="#000" stroke-opacity="0" fill="#fff"/><path d="M1416.2 472.74l10.9-3.25 10.86 3.24-10.87 3.25zM1416.2 473.98v11.92l10.14 5.8.05-14.6zM1437.96 473.98v11.92l-10.13 5.8-.05-14.6z" stroke="#000" stroke-opacity="0" stroke-width="3.77" fill="#fff"/><use xlink:href="#v" transform="matrix(1,0,0,1,1370,517.7638031397684) translate(41.5 14.4)"/><path d="M1166.93 456.02c-.5.05-.92.15-1.33.36l-17.8 8.77c-.98.47-1.65 1.3-1.86 2.37l-4.4 19.75c-.22.93-.06 1.85.45 2.67.04.1.1.15.2.26l12.3 15.8c.68.87 1.6 1.34 2.68 1.34h19.8c1.1 0 2-.47 2.68-1.34l12.32-15.8c.66-.88.92-1.9.66-2.98l-4.4-19.7c-.22-1.08-.88-1.9-1.86-2.37l-17.8-8.77c-.57-.26-1.08-.4-1.65-.36z" stroke="#000" stroke-opacity="0" stroke-width="3.83" fill="#326ce5"/><path d="M1166.92 454.6c-.54.04-.97.15-1.4.37l-18.8 9.26c-1.03.5-1.74 1.36-1.95 2.5l-4.66 20.85c-.2.98-.05 1.95.5 2.82.05.1.1.16.2.27l13 16.7c.72.9 1.7 1.4 2.83 1.4h20.9c1.15 0 2.12-.5 2.83-1.4l13-16.7c.7-.92.98-2 .7-3.1l-4.65-20.84c-.2-1.14-.9-2-1.94-2.5l-18.8-9.26c-.6-.27-1.14-.43-1.74-.38zm0 1.45c.6-.05 1.1.06 1.63.33l17.88 8.77c.92.5 1.57 1.3 1.84 2.4l4.4 19.7c.2 1.1 0 2.07-.66 2.93L1179.66 506c-.65.87-1.57 1.36-2.65 1.36h-19.83c-1.08 0-2-.5-2.65-1.36l-12.35-15.82c-.06-.05-.1-.16-.17-.27-.54-.8-.7-1.67-.48-2.64l4.38-19.72c.28-1.1.87-1.9 1.85-2.4l17.87-8.76c.44-.22.82-.33 1.3-.38z" stroke="#000" stroke-opacity="0" stroke-width="3.83" fill="#fff"/><path d="M1164.4 500.67c0 1.6-.56 2.4-1.66 2.4-.7 0-1.15-.25-1.4-.8v2.54h-.74v-5.48c0-.47 0-.8-.02-.94h.72v.12c.02.07.02.18.03.33v.3h.03c.13-.3.3-.5.52-.63.22-.14.5-.2.86-.2.56 0 .97.2 1.24.57.27.38.4.98.4 1.8zm-.8 0c0-.63-.08-1.1-.24-1.36-.18-.27-.44-.4-.8-.4-.3 0-.53.06-.7.2-.17.1-.3.3-.38.6-.1.25-.13.6-.13 1.04 0 .6.1 1.05.28 1.34.2.3.5.43.9.43.38 0 .65-.13.82-.4.17-.3.26-.75.26-1.42zM1169.1 500.68c0 .8-.16 1.42-.5 1.8-.35.4-.86.6-1.5.6-.67 0-1.16-.2-1.5-.6-.33-.43-.5-1.02-.5-1.8 0-1.6.67-2.38 2-2.38.7 0 1.2.2 1.52.58.33.4.5 1 .5 1.8zm-.77 0c0-.63-.1-1.1-.28-1.38-.18-.3-.5-.43-.92-.43-.44 0-.76.14-.95.44-.2.3-.3.76-.3 1.38 0 .6.1 1.07.3 1.38.2.3.5.45.9.45.45 0 .77-.13.95-.43.2-.3.3-.76.3-1.4zM1172.86 502.25c-.13.3-.32.5-.55.64-.2.12-.5.18-.83.18-.57 0-.98-.2-1.25-.6-.26-.38-.4-.98-.4-1.77 0-1.6.55-2.4 1.65-2.4.34 0 .62.06.85.2.22.12.4.32.54.6V496.67h.75v5.37c0 .48.02.8.03.96h-.7c-.02-.05-.02-.15-.04-.32l-.02-.43zm-2.26-1.57c0 .65.1 1.1.25 1.4.17.27.44.4.8.4.43 0 .74-.14.93-.44.2-.3.28-.77.28-1.4 0-.62-.1-1.07-.28-1.35-.2-.3-.5-.44-.9-.44s-.66.15-.83.44c-.16.28-.25.74-.25 1.38z" stroke="#000" stroke-opacity="0" fill="#fff"/><path d="M1156.2 472.74l10.9-3.25 10.86 3.24-10.87 3.25zM1156.2 473.98v11.92l10.14 5.8.05-14.6zM1177.96 473.98v11.92l-10.13 5.8-.05-14.6z" stroke="#000" stroke-opacity="0" stroke-width="3.77" fill="#fff"/><use xlink:href="#v" transform="matrix(1,0,0,1,1110,517.7638031397685) translate(41.5 14.4)"/><path d="M906.93 456.02c-.5.05-.92.15-1.33.36l-17.8 8.77c-.98.47-1.65 1.3-1.86 2.37l-4.4 19.75c-.22.93-.06 1.85.45 2.67.04.1.1.15.2.26l12.3 15.8c.68.87 1.6 1.34 2.68 1.34h19.8c1.1 0 2-.47 2.68-1.34l12.32-15.8c.66-.88.92-1.9.66-2.98l-4.4-19.7c-.22-1.08-.88-1.9-1.86-2.37l-17.8-8.77c-.57-.26-1.08-.4-1.65-.36z" stroke="#000" stroke-opacity="0" stroke-width="3.83" fill="#326ce5"/><path d="M906.92 454.6c-.54.04-.97.15-1.4.37l-18.8 9.26c-1.03.5-1.74 1.36-1.95 2.5l-4.66 20.85c-.2.98-.05 1.95.5 2.82.05.1.1.16.2.27l13 16.7c.72.9 1.7 1.4 2.83 1.4h20.9c1.15 0 2.12-.5 2.83-1.4l13-16.7c.7-.92.98-2 .7-3.1l-4.65-20.84c-.2-1.14-.9-2-1.94-2.5l-18.8-9.26c-.6-.27-1.14-.43-1.74-.38zm0 1.45c.6-.05 1.1.06 1.63.33l17.88 8.77c.92.5 1.57 1.3 1.84 2.4l4.4 19.7c.2 1.1 0 2.07-.66 2.93L919.66 506c-.65.87-1.57 1.36-2.65 1.36h-19.83c-1.08 0-2-.5-2.65-1.36l-12.35-15.82c-.06-.05-.1-.16-.17-.27-.54-.8-.7-1.67-.48-2.64l4.38-19.72c.28-1.1.87-1.9 1.85-2.4l17.87-8.76c.44-.22.82-.33 1.3-.38z" stroke="#000" stroke-opacity="0" stroke-width="3.83" fill="#fff"/><path d="M904.4 500.67c0 1.6-.56 2.4-1.66 2.4-.7 0-1.15-.25-1.4-.8v2.54h-.74v-5.48c0-.47 0-.8-.02-.94h.72v.12c.02.07.02.18.03.33v.3h.03c.13-.3.3-.5.52-.63.22-.14.5-.2.86-.2.56 0 .97.2 1.24.57.27.38.4.98.4 1.8zm-.8 0c0-.63-.08-1.1-.24-1.36-.18-.27-.44-.4-.8-.4-.3 0-.53.06-.7.2-.17.1-.3.3-.38.6-.1.25-.13.6-.13 1.04 0 .6.1 1.05.28 1.34.2.3.5.43.9.43.38 0 .65-.13.82-.4.17-.3.26-.75.26-1.42zM909.1 500.68c0 .8-.16 1.42-.5 1.8-.35.4-.86.6-1.5.6-.67 0-1.16-.2-1.5-.6-.33-.43-.5-1.02-.5-1.8 0-1.6.67-2.38 2-2.38.7 0 1.2.2 1.52.58.33.4.5 1 .5 1.8zm-.77 0c0-.63-.1-1.1-.28-1.38-.18-.3-.5-.43-.92-.43-.44 0-.76.14-.95.44-.2.3-.3.76-.3 1.38 0 .6.1 1.07.3 1.38.2.3.5.45.9.45.45 0 .77-.13.95-.43.2-.3.3-.76.3-1.4zM912.86 502.25c-.13.3-.32.5-.55.64-.2.12-.5.18-.83.18-.57 0-.98-.2-1.25-.6-.26-.38-.4-.98-.4-1.77 0-1.6.55-2.4 1.65-2.4.34 0 .62.06.85.2.22.12.4.32.54.6V496.67h.75v5.37c0 .48.02.8.03.96h-.7c-.02-.05-.02-.15-.04-.32l-.02-.43zm-2.26-1.57c0 .65.1 1.1.25 1.4.17.27.44.4.8.4.43 0 .74-.14.93-.44.2-.3.28-.77.28-1.4 0-.62-.1-1.07-.28-1.35-.2-.3-.5-.44-.9-.44s-.66.15-.83.44c-.16.28-.25.74-.25 1.38z" stroke="#000" stroke-opacity="0" fill="#fff"/><path d="M896.2 472.74l10.9-3.25 10.86 3.24L907.1 476zM896.2 473.98v11.92l10.14 5.8.05-14.6zM917.96 473.98v11.92l-10.13 5.8-.05-14.6z" stroke="#000" stroke-opacity="0" stroke-width="3.77" fill="#fff"/><use xlink:href="#v" transform="matrix(1,0,0,1,850,517.7638031397685) translate(41.5 14.4)"/><path d="M898.33 407l3 1.25 2.6 2 2 2.6 1.24 3 .42 3.2v19.17h-1v-19.1l-.4-3.02-1.15-2.75-1.83-2.4-2.4-1.83-2.75-1.14-3.02-.4h-88.77v-1h88.84zm-198.74.6v-1h48.83v1z" fill="#666"/><path d="M699.6 407.6h-.54l.03-.5-.06-.5h.56zM907.1 453l-4.65-14.28h9.27z" fill="#666"/><path d="M907.1 454.6l-5.34-16.38h10.65zm-3.96-15.38l3.95 12.15 3.93-12.15zM1158.33 407l3 1.25 2.6 2 2 2.6 1.24 3 .42 3.2v19.17h-1v-19.1l-.4-3.02-1.15-2.75-1.83-2.4-2.4-1.83-2.75-1.14-3.02-.4H806.28v-1h348.84zm-458.74.6v-1h48.83v1z" fill="#666"/><path d="M699.6 407.6h-.54l.03-.5-.06-.5h.56zM1167.1 453l-4.65-14.28h9.27z" fill="#666"/><path d="M1167.1 454.6l-5.34-16.38h10.65zm-3.96-15.38l3.95 12.15 3.93-12.15zM1418.33 407l3 1.25 2.6 2 2 2.6 1.24 3 .42 3.2v19.17h-1v-19.1l-.4-3.02-1.15-2.75-1.83-2.4-2.4-1.83-2.75-1.14-3.02-.4H806.28v-1h608.84zm-718.74.6v-1h48.83v1z" fill="#666"/><path d="M699.6 407.6h-.54l.03-.5-.06-.5h.56zM1427.1 453l-4.65-14.28h9.27z" fill="#666"/><path d="M1427.1 454.6l-5.34-16.38h10.65zm-3.96-15.38l3.95 12.15 3.93-12.15z" fill="#666"/><use xlink:href="#w" transform="matrix(1,0,0,1,748.4326350223928,385.4866140459626) translate(0 14.4)"/><use xlink:href="#x" transform="matrix(1,0,0,1,748.4326350223928,385.4866140459626) translate(0 36)"/><path d="M731.6 954.32h-1v-135.1h1zM628.52 407.6h-11.58l-3.02.38-2.76 1.14-2.4 1.84-1.82 2.4-1.14 2.74-.4 3.02v239.3l.4 3.02 1.15 2.75 1.83 2.38 2.4 1.84 2.75 1.14 3.02.4h102.17l3.2.4 3 1.26 2.6 2 2 2.6 1.25 3 .42 3.2v115.2h-1V682.48l-.4-3.03-1.15-2.76-1.83-2.37-2.4-1.84-2.75-1.15-3.02-.4H616.88l-3.2-.42-3-1.24-2.6-2-2-2.6-1.25-3-.42-3.2V419.04l.43-3.2 1.25-3 2-2.6 2.6-2 3-1.24 3.2-.4h11.65z" fill="#666"/><path d="M731.6 954.4l-1 .83v-.92h1zM643.3 407.1l-14.27 4.62v-9.27z" fill="#666"/><path d="M644.9 407.1l-16.37 5.3v-10.64zm-15.37 3.93l12.15-3.94-12.15-3.96z" fill="#666"/><use xlink:href="#y" transform="matrix(1,0,0,1,706.6116140427242,797.6146281616371) translate(0 14.4)"/><path d="M873.76 902.85l-.42 3.22-1.24 3-2 2.6-2.6 2-3 1.23-3.2.42H743.1l-3.02.4-2.75 1.14-2.4 1.83-1.83 2.38-1.14 2.76-.4 3v27.48h-1V926.8l.43-3.22 1.25-3 2-2.6 2.6-2 3-1.24 3.2-.42h118.18l3-.4 2.77-1.14 2.4-1.83 1.82-2.4 1.14-2.74.4-3v-82.17h1zM864.5 687l3 1.25 2.6 2 2 2.6 1.24 3 .42 3.2v99.98h-1v-99.9l-.4-3.03-1.14-2.75-1.83-2.4-2.4-1.83-2.76-1.14-3-.4h-11.6v-1h11.65zM731.6 954.4l-1 .83v-.92h1zM849.14 691.72l-14.26-4.63 14.26-4.65z" fill="#666"/><path d="M849.64 692.4l-16.38-5.3 16.38-5.34zm-13.14-5.3l12.14 3.93v-7.9z" fill="#666"/><use xlink:href="#y" transform="matrix(1,0,0,1,848.7848421732283,799.0291769423224) translate(0 14.4)"/><path d="M1009.2 983.44v1h-95.44v-1zm-255.72-2.94v-1H864.8v1z" fill="#666"/><path d="M753.5 980.5h-.26l-.53-1h.8zM1023.97 983.94l-14.27 4.63v-9.27z" fill="#666"/><path d="M1025.6 983.94l-16.4 5.32v-10.64zm-15.4 3.95l12.15-3.96-12.15-3.95z" fill="#666"/><use xlink:href="#y" transform="matrix(1,0,0,1,864.809337622289,971.169847484699) translate(0 14.4)"/><path d="M1039.24 481.6l3 1.24 2.6 2 2 2.6 1.24 3 .42 3.2V944.8h-1V493.7l-.4-3-1.14-2.76-1.83-2.4-2.4-1.83-2.75-1.13-3-.4h-2.4v-1h2.45zm-106 .58v-1h51.4v1z" fill="#666"/><path d="M933.26 482.18h-.4l-.23-1h.63zM1048 959.55l-4.64-14.26h9.28z" fill="#666"/><path d="M1048 961.17l-5.32-16.38h10.64zm-3.95-15.38l3.95 12.14 3.95-12.15z" fill="#666"/><use xlink:href="#z" transform="matrix(1,0,0,1,984.6266216470808,460.07718896654) translate(3.4800000000000004 14.4)"/><use xlink:href="#A" transform="matrix(1,0,0,1,984.6266216470808,460.07718896654) translate(0.004999999999999005 36)"/><path d="M1193.25 481.68h27.5c6.62 0 12 5.37 12 12v478.26c0 6.63-5.38 12-12 12H1081.7" stroke="#666" fill="none"/><path d="M1193.26 482.18h-.4l-.23-1h.63z" fill="#666"/><path d="M1066.94 983.94l14.27-4.64v9.27z" stroke="#666" fill="#666"/><path d="M1453.25 481.68h27.5c6.62 0 12 5.37 12 12v478.26c0 6.63-5.38 12-12 12H1081.7" stroke="#666" fill="none"/><path d="M1453.26 482.18h-.4l-.23-1h.63z" fill="#666"/><path d="M1066.94 983.94l14.27-4.64v9.27z" stroke="#666" fill="#666"/><path d="M703.68 531.04h-1.15c-2.1 0-6.08.2-9.67 3.34-8.64 7.48-10.62 18.46-25.4 24.42-12.3 4.9-27.46.26-27.46.26s13.5-.94 15.3-11.3c1.4-8.04-5.9-13.8-10.56-21.06-4.68-7.43-5.9-13.6-3.6-16.26 6.4-7.58 24 12.86 32.78 15.63 8.58 2.72 14.4-3.56 21.5-2.6 2.24.25 3.33 1.24 4.1 2.5.26.4.83 1.83 1.4 2.35.52.52 1.22.9 1.86 1.3.9.48 1.73 1.42.9 1.42z" stroke="#000" stroke-opacity="0" stroke-width=".05" fill="url(#B)"/><path d="M663.1 519.22c-2.1-1.62-4.28-3.3-6.46-4.86l-1.4-1c-5.83-3.97-11.14-6.43-14.1-2.92-2.3 2.66-1.08 8.83 3.66 16.26 0 .05.06.15.13.2 2.43 3.77 9.53 12.66 26.37 12.3 1.08-1.2 2.75-3.4 4.92-5.8-3.52-5.7-8.83-10.68-13.12-14.18z" stroke="#000" stroke-opacity="0" stroke-width=".05" fill="url(#C)"/><path d="M680.06 546c.07-2.57-.38-5.03-1.28-7.43-2.17.3-4.67.57-7.48.62-2.12 2.2-6.8 8-14.6 13.27-10.36 7-16.7 6.6-16.7 6.6s15.17 4.64 27.46-.27c4.4-1.78 7.68-4.03 10.36-6.48.4-.42 2.18-2.57 2.24-6.33z" stroke="#000" stroke-opacity="0" stroke-width=".05" fill="url(#D)"/><path d="M676.22 533.4c-2.17 2.4-3.84 4.6-4.92 5.8 2.8-.06 5.3-.32 7.48-.63-.25-.74-.5-1.42-.9-2.15-.44-1.04-1.02-2.04-1.66-3.03z" stroke="#000" stroke-opacity="0" stroke-width=".05" fill="url(#E)"/><path d="M688.83 524.24c-4.54 1.36-9.1 3.66-14.9 1.83-2.9-.9-6.73-3.7-10.83-6.85 4.3 3.5 9.6 8.47 13.12 14.17 3.2-3.57 7.56-7.6 12.6-9.16z" stroke="#000" stroke-opacity="0" stroke-width=".05" fill="url(#F)"/><path d="M678.78 538.57c.9 2.4 1.35 4.86 1.28 7.42-.06 3.75-1.85 5.9-2.24 6.32 6.2-5.75 8.96-12.7 15.04-17.94 1.1-1 2.24-1.67 3.4-2.14-3.97 1.62-8.26 4.9-17.48 6.33z" stroke="#000" stroke-opacity="0" stroke-width=".05" fill="url(#G)"/><path d="M703.68 531.04c.83 0 0-.94-.9-1.4-.64-.43-1.34-.8-1.85-1.32-.58-.52-1.15-1.94-1.4-2.35-.78-1.26-1.87-2.25-4.1-2.5-2.3-.33-4.42.14-6.6.77-5.05 1.62-9.4 5.6-12.6 9.15.63.98 1.2 1.98 1.66 3.02.37.73.63 1.4.88 2.15 9.22-1.42 13.5-4.7 17.48-6.33 2.5-1.1 4.86-1.2 6.27-1.2z" stroke="#000" stroke-opacity="0" stroke-width=".05" fill="url(#H)"/><path d="M656.7 552.47c7.8-5.28 12.48-11.08 14.6-13.28-16.84.36-23.94-8.53-26.37-12.3 4.6 7.17 11.77 12.87 10.43 20.87-1.8 10.35-15.36 11.3-15.36 11.3s6.34.4 16.7-6.6z" stroke="#000" stroke-opacity="0" stroke-width=".05" fill="url(#I)"/><path d="M694.9 525.97c.78 0 1.36.57 1.36 1.3 0 .73-.58 1.36-1.35 1.36-.7 0-1.33-.63-1.33-1.36 0-.73.64-1.3 1.34-1.3z" stroke="#000" stroke-opacity="0" stroke-width=".05" fill="#fff"/><path d="M612 568.76h120v41.47H612z" stroke="#000" stroke-opacity="0" stroke-width="2" fill="#fff" fill-opacity="0"/><use xlink:href="#J" transform="matrix(1,0,0,1,617,573.7638031397687) translate(23.574999999999996 20.4)"/><path d="M812.34 561.55H672.5v-1h139.84zm95.25-12.47l-.43 3.2-1.25 3-2 2.6-1.83 1.42v-1.26l1.12-.86 1.83-2.4 1.14-2.75.4-3v-23.88h1zM672.5 561.55H669v-1h3.5zM911.72 524.65h-9.27l4.64-14.27z" fill="#666"/><path d="M912.4 525.15h-10.64l5.33-16.4zm-9.26-1h7.9L907.08 512zM812.34 561.55H672.5v-1h139.84zm355.25-12.47l-.43 3.2-1.25 3-2 2.6-2.6 2-3 1.25-3.2.42H902.1v-1h252.95l3.02-.4 2.76-1.14 2.4-1.82 1.82-2.4 1.14-2.75.4-3v-23.88h1zM672.5 561.55H669v-1h3.5zM1171.72 524.65h-9.27l4.64-14.27z" fill="#666"/><path d="M1172.4 525.15h-10.64l5.33-16.4zm-9.26-1h7.9l-3.95-12.15zM812.34 561.55H672.5v-1h139.84zm615.25-12.47l-.43 3.2-1.25 3-2 2.6-2.6 2-3 1.25-3.2.42H902.1v-1h512.95l3.02-.4 2.76-1.14 2.4-1.82 1.82-2.4 1.14-2.75.4-3v-23.88h1zM672.5 561.55H669v-1h3.5zM1431.72 524.65h-9.27l4.64-14.27z" fill="#666"/><path d="M1432.4 525.15h-10.64l5.33-16.4zm-9.26-1h7.9l-3.95-12.15z" fill="#666"/><use xlink:href="#K" transform="matrix(1,0,0,1,812.3415610952792,550.2483095842141) translate(0 14.4)"/><use xlink:href="#L" transform="matrix(1,0,0,1,812.3415610952792,550.2483095842141) translate(56.800000000000004 14.4)"/><path d="M214.44 688.87H193.7c-.95 0-1.7-.77-1.7-1.7v-2.54c0-9.5 6.23-17.44 15.5-19.67.4-.1.8-.05 1.2.17 2.73 1.46 5.68 1.46 8.4 0 .4-.22.8-.27 1.22-.17 2.43.6 4.43 1.46 6.5 2.85l-1.9 2.84c-1.55-1-3-1.68-4.8-2.16-3.45 1.58-7 1.58-10.43 0-7.4 2.06-12.3 8.5-12.3 16.15v.84h19.04z" stroke="#fff" stroke-opacity="0" fill="#232f3e"/><path d="M212.88 669.55c-6.17 0-11.17-5-11.17-11.15s5-11.14 11.18-11.14c6.16-.07 11.2 4.88 11.26 11 .04 4.27-2.1 7.9-5.86 9.9-1.72.97-3.4 1.4-5.4 1.4zm0-18.9c-4.3 0-7.83 3.45-7.85 7.75 0 2.92 1.48 5.42 4.06 6.8 2.43 1.32 5.12 1.32 7.57 0 2.6-1.4 4.1-3.94 4.06-6.9-.05-4.27-3.57-7.68-7.85-7.63zM270.32 688.87h-20.75v-3.4h19.04v-.84c0-7.66-4.9-14.1-12.25-16.16-3.45 1.6-7 1.6-10.46 0-1.82.5-3.3 1.2-4.84 2.28l-1.94-2.8c2.07-1.44 4.08-2.35 6.5-2.97.44-.1.86-.05 1.26.16 2.7 1.46 5.7 1.46 8.42 0 .4-.2.8-.26 1.2-.16 9.25 2.22 15.5 10.17 15.5 19.65v2.54c0 .93-.76 1.68-1.68 1.7z" stroke="#fff" stroke-opacity="0" fill="#232f3e"/><path d="M251.08 669.55c-6.2 0-11.23-5.05-11.23-11.25s5.06-11.2 11.28-11.2c6.2 0 11.23 5.04 11.23 11.24 0 4.22-2.14 7.82-5.85 9.84-1.75.94-3.44 1.37-5.42 1.37zm0-18.9c-4.3 0-7.8 3.45-7.83 7.76-.02 2.93 1.46 5.42 4.05 6.8 2.43 1.32 5.13 1.32 7.6 0 2.62-1.4 4.13-3.96 4.08-6.95-.1-4.27-3.62-7.68-7.9-7.6zM259.2 727.1h-54.46c-.92 0-1.67-.76-1.67-1.7v-3.62c-.06-13.08 8.6-24.08 21.32-27.17.46-.12.86-.06 1.27.14 4.04 2.18 8.5 2.18 12.6 0 .34-.2.75-.26 1.2-.13 12.78 3.07 21.45 14.07 21.4 27.18v3.6c0 .96-.76 1.7-1.68 1.7zm-52.72-3.4h50.97v-1.92c0-11.26-7.28-20.73-18.2-23.66-4.8 2.3-9.83 2.3-14.62 0-10.93 2.93-18.15 12.4-18.15 23.66z" stroke="#fff" stroke-opacity="0" fill="#232f3e"/><path d="M232.02 699.73c-2.7 0-5-.58-7.4-1.87-7.4-4.06-10.13-13.33-6.1-20.76 4.1-7.4 13.38-10.13 20.83-6.1 7.42 4.08 10.15 13.34 6.1 20.78-1.47 2.7-3.4 4.62-6.1 6.08-2.36 1.3-4.66 1.87-7.33 1.87zm0-26.76c-4.44-.06-8.28 2.17-10.42 6.08-3.07 5.66-.98 12.76 4.7 15.85 3.67 1.95 7.7 1.95 11.4 0 3.95-2.14 6.22-5.97 6.16-10.43-.1-6.43-5.4-11.6-11.84-11.5z" stroke="#fff" stroke-opacity="0" fill="#232f3e"/><path d="M270.78 688.87h-39.72c-.68 0-1.23-.55-1.23-1.23V685c-.04-9.54 6.3-17.57 15.56-19.83.33-.1.63-.04.92.1 2.95 1.6 6.2 1.6 9.2 0 .25-.14.54-.2.88-.1 9.32 2.24 15.64 10.26 15.6 19.83v2.64c0 .68-.55 1.23-1.22 1.23zm-38.46-2.47h37.2V685c0-8.2-5.32-15.12-13.3-17.26-3.5 1.68-7.16 1.68-10.66 0-7.97 2.14-13.24 9.05-13.24 17.26z" stroke="#fff" stroke-opacity="0" stroke-width=".73" fill="#fff" fill-opacity="0"/><path d="M232.94 688.87h-39.72c-.67 0-1.22-.55-1.22-1.23V685c-.04-9.54 6.28-17.57 15.56-19.83.34-.1.63-.04.93.1 2.94 1.6 6.2 1.6 9.18 0 .25-.14.55-.2.88-.1 9.32 2.24 15.65 10.26 15.6 19.83v2.64c0 .68-.54 1.23-1.22 1.23zm-38.45-2.47h37.18V685c0-8.2-5.3-15.12-13.28-17.26-3.5 1.68-7.17 1.68-10.67 0-7.97 2.14-13.24 9.05-13.24 17.26z" stroke="#fff" stroke-opacity="0" stroke-width=".73" fill="#fff" fill-opacity="0"/><use xlink:href="#M" transform="matrix(1,0,0,1,162,736.0866141732283) translate(53.5 14.4)"/><path d="M206.72 334.43H200V300.8c0-3.5 1.4-5.56 2.62-6.7 2.63-2.6 6.2-2.67 6.8-2.67h10.48c3.78 0 5.96 1.53 7.17 2.78 2.3 2.57 2.37 5.9 2.3 6.76v12.68c0 3.65-1.47 5.82-2.75 6.97-2.56 2.4-5.88 2.46-6.72 2.46h-13.18zm13.44-18.12c.38 0 1.34-.05 1.92-.6.38-.37.64-1.08.64-2.1v-13.02c0-.33-.13-1.3-.64-1.85-.5-.5-1.4-.6-2.18-.6h-10.56c-2.62 0-2.62 1.96-2.62 2.66v15.5zm37.12-36.3H264v33.7c0 3.42-1.4 5.55-2.62 6.7-2.63 2.55-6.2 2.66-6.8 2.66H244.1c-3.78 0-5.96-1.53-7.17-2.83-2.3-2.56-2.37-5.83-2.3-6.7v-12.68c0-3.65 1.47-5.83 2.75-7.02 2.56-2.4 5.88-2.45 6.72-2.4h13.18zm-13.44 18.13c-.38 0-1.34.1-1.92.6-.38.38-.64 1.08-.64 2.12v13c0 .4.13 1.3.64 1.86.5.55 1.4.6 2.18.6h10.56c2.68 0 2.68-1.95 2.68-2.66v-15.5z" stroke="#000" stroke-opacity="0" fill="#25c151"/><path d="M176 340h112v28H176z" stroke="#000" stroke-opacity="0" stroke-width="2" fill="#fff" fill-opacity="0"/><use xlink:href="#N" transform="matrix(1,0,0,1,181,345) translate(11.524999999999999 14.4)"/><path d="M232.5 652.87h-1V504.2h1zm0-170.28h-1V368.5h1zM232.5 368.5h-1v-.5h1zM232 667.63l-4.64-14.26h9.28z" fill="#666"/><path d="M232 669.25l-5.32-16.38h10.64zm-3.95-15.38L232 666l3.95-12.13z" fill="#666"/><use xlink:href="#O" transform="matrix(1,0,0,1,209.05,482.59259753191316) translate(0 14.4)"/><path d="M307 687.6h-34.5v-1H307zm455.7 0H345.54v-1H762.7zM272.5 687.6h-.5v-1h.5zM777.47 687.1l-14.27 4.62v-9.27z" fill="#666"/><path d="M779.1 687.1l-16.4 5.3v-10.64zm-15.4 3.93l12.15-3.94-12.15-3.96z" fill="#666"/><use xlink:href="#P" transform="matrix(1,0,0,1,306.985279844891,676.2866141732284) translate(0 14.4)"/><path d="M797.42 494.83l3 1.24 2.6 2 2 2.6 1.23 3 .42 3.2v136.75h-1V506.94l-.4-3.02-1.13-2.75-1.84-2.4-2.4-1.83-2.74-1.14-3.02-.4h-16.82v-1h16.9zm-69.1.58h-12.3l-3 .4-2.76 1.14-2.4 1.84-1.82 2.4-1.14 2.74-.4 3.02v27.47h-1v-27.53l.42-3.2 1.24-3 2-2.6 2.6-2 3-1.24 3.2-.42h12.36z" fill="#666"/><path d="M704.5 537.9h-1v-3.5h1zM806.17 658.38l-4.63-14.26h9.27z" fill="#666"/><path d="M806.17 660l-5.32-16.38h10.65zm-3.94-15.38l3.94 12.14 3.95-12.14z" fill="#666"/><use xlink:href="#Q" transform="matrix(1,0,0,1,728.3196563205435,473.3060563619912) translate(0.004999999999999005 14.4)"/><use xlink:href="#R" transform="matrix(1,0,0,1,728.3196563205435,473.3060563619912) translate(8.029999999999998 36)"/><path d="M758.06 976.8c-.05-.86-.2-1.95-.54-3.08-.32-1.14-.8-2.44-1.57-3.74-.7-1.3-1.62-2.66-2.8-4-.5-.55-1-1.04-1.53-1.53.8-3.03-1.03-5.63-1.03-5.63-3.15-.22-5.16.87-5.92 1.35-.16 0-.27-.05-.38-.1-.54-.22-1.08-.38-1.67-.6-.55-.16-1.14-.27-1.74-.44l-1.85-.32c-.1 0-.22 0-.32-.04-1.36-4.07-5.3-5.75-5.3-5.75-4.46 2.6-5.27 6.2-5.27 6.2s-.05.1-.05.2c-.26.06-.48.17-.75.22-.33.06-.65.22-.98.33-.32.1-.65.2-1.03.38-.65.27-1.3.54-1.95.86-.66.32-1.25.7-1.85 1.08-.1-.06-.16-.06-.16-.06-6.2-2.16-11.6.44-11.6.44-.5 5.96 2.43 9.75 3.03 10.45-.16.4-.27.77-.38 1.1-.5 1.4-.8 2.76-1.03 4.22 0 .22-.05.43-.05.6-5.7 2.6-7.37 7.85-7.37 7.85 4.7 5.04 10.24 5.3 10.24 5.3.7 1.15 1.52 2.23 2.44 3.26.38.43.75.87 1.2 1.25-1.75 4.55.2 8.34.2 8.34 5.26.16 8.73-2.17 9.5-2.65.47.16 1 .32 1.56.43 1.62.38 3.25.6 4.93.65.43 0 .8.05 1.24 0H736.14c2.5 3.25 6.83 3.74 6.83 3.74 3.14-3 3.3-5.97 3.3-6.62v-.06-.1-.1c.66-.45 1.25-.88 1.85-1.37 1.24-1.03 2.33-2.22 3.25-3.52.05-.1.16-.22.2-.32 3.54.17 6.03-2 6.03-2-.6-3.36-2.7-4.98-3.14-5.3l-.06-.06c0-.06-.05-.06-.1-.06.05-.2.05-.37.05-.6.05-.37.05-.75.05-1.08V985.42v-.33l-.05-.33v-.27c-.06-.06-.06-.17-.06-.27l-.05-.28v-.32c-.1-.33-.16-.7-.27-1.08-.38-1.47-.98-2.82-1.8-4.07-.8-1.24-1.78-2.33-2.92-3.25-1.13-.92-2.43-1.68-3.8-2.22-1.3-.53-2.7-.9-4.1-1.07-.7-.06-1.4-.1-2.06-.1h-.53l-.3.04h-.26c-.38 0-.7.06-1.03.1-1.4.28-2.7.72-3.9 1.37-1.13.65-2.1 1.46-2.92 2.33-.8.92-1.46 1.9-1.9 2.92-.43 1.02-.7 2.1-.76 3.13v1.19c0 .1 0 .2.06.37.05.5.16 1.03.27 1.47.32.97.8 1.9 1.4 2.6.6.76 1.36 1.35 2.12 1.9.76.43 1.57.8 2.38 1.02.82.2 1.63.32 2.4.32H736.7c.05 0 .1 0 .16-.06h.27l.1-.05h.12c.1 0 .22 0 .27-.04.1 0 .22 0 .27-.06.23 0 .4-.05.55-.1.33-.12.65-.22.93-.4.27-.1.54-.26.8-.42l.17-.16c.27-.16.33-.54.1-.76-.15-.22-.48-.27-.75-.16-.05.05-.1.05-.16.1-.27.1-.5.17-.7.28-.28.05-.55.1-.77.16-.16 0-.27.05-.43.05h-.81H736.62c-.12-.06-.17-.06-.22-.06-.65-.06-1.25-.22-1.8-.5-.6-.2-1.13-.53-1.62-.96-.54-.44-.97-.93-1.3-1.47-.32-.58-.6-1.18-.7-1.83-.06-.32-.06-.7-.06-1.03v-.27c0 .06 0 0 0 0v-.11c0-.05.06-.1.06-.16 0-.16 0-.32.05-.5.27-1.45 1.1-2.86 2.28-3.9.28-.26.6-.53.98-.75.33-.2.7-.43 1.1-.6.37-.15.74-.26 1.18-.37.43-.1.8-.16 1.24-.22h1.36c.5 0 .92.1 1.35.16.93.22 1.85.55 2.67.93 1.68.86 3.1 2.16 3.9 3.73.5.82.76 1.68.92 2.55 0 .22.04.43.04.65l.06.16V985.62c-.06.27-.06.5-.1.76 0 .2-.07.48-.12.7-.05.27-.1.48-.16.7-.16.5-.33.92-.5 1.4-.42.88-.9 1.74-1.56 2.56-1.25 1.57-2.93 2.87-4.88 3.68-.97.38-2 .7-3.03.87-.54.06-1.08.1-1.63.1H735.43h-.12c-.26 0-.53 0-.8-.04-1.14-.05-2.28-.22-3.36-.54-1.14-.27-2.17-.65-3.2-1.14-1.95-.97-3.8-2.33-5.14-3.95-.7-.82-1.36-1.68-1.84-2.6-.5-.92-.92-1.9-1.2-2.88-.27-.97-.48-1.95-.54-2.97V981.25v-.12-.38c0-.5.06-1.03.1-1.52.07-.54.17-1.03.28-1.57.1-.5.22-.97.38-1.52.33-.97.7-1.95 1.2-2.87.9-1.84 2.1-3.46 3.57-4.76.32-.33.7-.6 1.08-.93.38-.28.8-.55 1.25-.82l1.24-.65c.22-.1.44-.22.7-.32.12-.05.22-.05.33-.1.1-.06.22-.1.33-.16.5-.17.92-.33 1.4-.44.1-.05.28-.05.4-.1.1-.06.2-.06.3-.1l.77-.18c.1 0 .22-.05.38-.05.1-.06.22-.06.38-.1.12 0 .22 0 .4-.06h.15l.16-.05c.17 0 .28 0 .4-.05h.42c.1-.06.33-.06.44-.06.05-.05.16-.05.27-.05H735.84c.17-.06.27-.06.44-.06h.2s.06 0 0 0h.56c.42-.06.9-.06 1.4 0 .92 0 1.84.1 2.76.27 1.78.33 3.46.82 5.04 1.52 1.5.7 2.87 1.57 4.06 2.5.1.05.16.1.2.16.12.05.18.1.23.16.16.1.27.27.43.38.17.1.28.22.44.32.1.17.2.28.38.38.5.5.97 1.03 1.4 1.52.82.98 1.52 2 2.06 2.98 0 .05.06.1.06.16.05.06.1.1.1.17.06.16.17.27.17.37.1.1.15.22.2.33.06.1.1.22.17.38.16.43.38.87.54 1.24.23.65.4 1.25.55 1.8.06.15.27.32.5.26.26 0 .42-.16.42-.38 0-.54 0-1.2-.1-1.95z" stroke="#000" stroke-opacity="0" fill="url(#S)"/><path d="M683.1 1020h96v24h-96z" stroke="#000" stroke-opacity="0" stroke-width="2" fill="#fff" fill-opacity="0"/><use xlink:href="#T" transform="matrix(1,0,0,1,688.0866141732283,1025) translate(10.524999999999999 14.4)"/><path d="M232.5 974.74l.4 3.02 1.14 2.75 1.83 2.4 2.4 1.83 2.75 1.15 3 .4h74.86v1h-74.9l-3.22-.43-3-1.24-2.6-2-2-2.58-1.24-3-.42-3.22V727.6h1zm455.12 11.53v1h-330.2v-1zM232.5 727.6h-1v-.5h1zM702.38 986.77l-14.26 4.64v-9.26z" fill="#666"/><path d="M704 986.77l-16.38 5.33v-10.65zm-15.38 3.95l12.14-3.95-12.14-3.95z" fill="#666"/><use xlink:href="#P" transform="matrix(1,0,0,1,318.8824801732284,975.9716538267717) translate(0 14.4)"/><path d="M1060.46 970.4s3.9 1.63 6.4 21.92c0 0-3.64 1.42-1.42 3.84s2.55 6.95 2.55 6.95-13.23 1.94-36.14.32c0 0-9.2-18.8-5.58-25.3l6 .17s8.73 4.4 8.35-.26c0 0 1.63-.18 1.9-.3.22-.13 2.1 3.47 7.15-2.55 0 0 7.85-3.05 10.62-4.73zm-29.96 3.43s-2.38-6.83-5.36-5.4c-3.03 1.42.22 6.57 1.03 7.63 0 0 2.6-1.68 4.33-2.23z" stroke="#000" stroke-opacity="0" stroke-width=".38" fill="#60d0e4"/><path d="M1050.38 1008.64c-.32-.5-.97-.44-1.68-.56-.43-.06-1.46-.2-1.46-.75-.05-.62.87-.8 1.46-.93 1.47-.3 2.88-.25 4.6-.25.77 0 1.74.07 1.85.56.06.4-.27.7-.6.88-.2.2-.75.37-.75.75 0 .62 1.2.5.92 1.42-.1.38-.7.56-1.14.7-1.4.36-3.1.54-4.7.67-1.48.12-3.37.37-5.1.12-.55-.06-1.2-.25-1.2-.56-.05-.62.87-.74 1.36-.86 1.4-.2 2.7-.07 4.22-.2 1.1 0 2.12 0 2.22-.98zm-14.95.24c1.03-.06 2.5 0 3.52.25.27.07.76.2.76.44 0 .3-.64.43-1.02.56-2.16.55-4.4.74-6.82 1-.44.05-.87.1-1.36.24-.27.06-.97.25-.92.56 0 .43 1.14.3 1.57.37.6.06 1.3.12 1.36.56.1.74-1.35.74-2.1.8-1.96.13-3.7.06-5.53-.18-.38 0-.8-.13-1.2-.25-.32-.13-.8-.3-.8-.62 0-.5.75-.67 1.13-.74 1.52-.37 3.2-.5 4.82-.87.98-.2 2-.63 2.82-.94.87-.37 1.73-.8 2.65-1.1.37-.08.64-.08 1.13-.14zm18.96 1.56c.2 0 .86 0 .86.3 0 .5-1.46.5-1.46.07-.06-.3.32-.3.6-.36zm-1.9.37c.32 0 .8 0 .86.38 0 .5-1.5.44-1.46 0 0-.25.27-.3.6-.37zm-2.22.44c.1 0 .43-.06.7 0 .1 0 .43.13.43.25.07.24-.47.36-.7.36-.42.07-1.24 0-1.3-.3 0-.26.6-.32.88-.32zm-2.98.2c.37 0 1.2 0 1.2.36 0 .56-1.8.56-1.85.06 0-.3.37-.37.65-.43zm-3.47.05c.32 0 .6 0 .92.05.16 0 .65.13.7.38 0 .37-1.2.5-1.73.43-.38 0-1.03-.2-1.03-.43 0-.25.37-.3.48-.3.22-.14.38-.14.65-.14zm-21.3.92c-.1.3-1.18.5-1.62.25.23-.37 1.15-.43 1.64-.25zm.23.56c-.28.43-1.3.56-1.85.3.28-.36 1.37-.55 1.86-.3zm.43.56c-.28.37-1.3.56-1.85.3.2-.43 1.46-.6 1.84-.3zm1.94.3c-.22.44-1.52.63-1.95.26.2-.44 1.45-.62 1.94-.25zm1.52.07c.32 0 .92-.05 1.2.07.58.2.15.5-.34.56-.43.13-.92.2-1.5.2-.3-.07-.72-.14-.77-.32 0-.18.43-.3.6-.36.32-.07.53-.13.8-.13zm4.6.26c-.05.3-.43.43-.76.56-.38.12-.76.18-1.14.25-.27 0-.75 0-.8-.2-.06-.24.53-.5.7-.55.43-.12.8-.18 1.13-.25.32 0 .7 0 .86.2zm19.02-44c.05 0 0 .07 0 .07-1.52 1.67-2.93 3.53-4.72 5.08-.2.14-.6.5-.86.5-.17 0-.38-.24-.55-.3-.97-.37-1.95.37-1.95 1.43-.32.12-.7.18-1.13.18-.38.08-.82.14-1.2.14-.27-.06-.48-.2-.86-.13-.16 0-.26.14-.48.14-.33.06-.8-.06-1.2-.13-2.38-.54-4.5-1.85-6.82-2.34.27-.2.65-.25.98-.38.05-.12-.1-.3-.06-.43 5.64.62 10.5-.75 14.68-2.1 1.47-.5 2.88-1.13 4.18-1.7z" stroke="#000" stroke-opacity="0" stroke-width=".38"/><path d="M1046.1 971.84c-4.17 1.36-9.04 2.73-14.68 2.1-.05.13.1.32.06.38-.33.2-.7.25-.98.44 2.33.5 4.44 1.8 6.83 2.35.38.08.86.2 1.2.14.2 0 .3-.13.48-.13.4-.05.6.08.87.14.38 0 .82-.06 1.2-.13.43 0 .8-.05 1.13-.17 0-1.06.98-1.8 1.95-1.43.17.06.38.3.55.3.27 0 .65-.36.86-.5 1.8-1.54 3.2-3.4 4.72-5.07 0 0 .05-.07 0-.07-1.3.56-2.7 1.18-4.18 1.68z" stroke="#000" stroke-opacity="0" stroke-width=".38" fill="#638b18"/><path d="M1048.16 1009.63c-1.5.06-2.8 0-4.22.2-.5.05-1.4.23-1.36.85 0 .3.65.5 1.2.56 1.73.25 3.57 0 5.1-.12 1.6-.13 3.3-.3 4.7-.68.43-.13 1.03-.3 1.14-.7.27-.92-.92-.8-.92-1.4 0-.4.54-.57.75-.76.33-.18.66-.5.6-.87-.1-.55-1.08-.55-1.84-.55-1.72 0-3.2-.06-4.6.25-.6.13-1.5.3-1.46.93 0 .56 1.03.7 1.46.75.7.12 1.36.06 1.68.56-.1 1-1.13 1-2.22 1zm-13.87-.68c-.93.3-1.8.74-2.66 1.1-.8.32-1.84.76-2.82.94-1.62.37-3.3.5-4.82.86-.38.07-1.14.25-1.14.75 0 .32.5.5.82.63.38.12.8.25 1.2.25 1.83.24 3.56.3 5.5.18.77-.06 2.23-.06 2.13-.8-.05-.44-.75-.5-1.35-.56-.43-.06-1.57.06-1.57-.37-.05-.3.65-.5.92-.56.5-.13.92-.2 1.36-.25 2.43-.25 4.66-.44 6.82-1 .38-.12 1.03-.24 1.03-.55 0-.25-.48-.37-.75-.44-1.03-.25-2.5-.3-3.52-.25-.5 0-.76 0-1.14.07zm19.5 1.86c0 .44 1.46.44 1.46-.05 0-.3-.65-.3-.87-.3-.28.05-.66.05-.6.36zm-1.9.38c-.05.44 1.46.5 1.46 0-.05-.37-.54-.37-.86-.3-.33 0-.6.05-.6.3zm-2.5.37c.06.3.88.38 1.3.3.23 0 .77-.1.7-.36 0-.13-.37-.26-.42-.26-.27-.06-.6-.06-.7 0-.28 0-.87.06-.87.3zm-2.75.3c.05.5 1.84.5 1.84-.05 0-.37-.83-.37-1.2-.37-.28.06-.65.12-.65.43zm-3.47-.23c-.1 0-.5.06-.5.3 0 .32.66.44 1.04.44.54.06 1.73-.06 1.73-.43 0-.25-.54-.38-.7-.38-.33-.06-.6-.06-.92-.06-.27 0-.43 0-.65.12zm-22.27 1.05c.45.25 1.53.06 1.64-.25-.5-.18-1.4-.12-1.63.25zm0 .62c.56.24 1.58.1 1.86-.32-.5-.25-1.58-.06-1.85.3zm.45.55c.54.25 1.57.06 1.84-.3-.4-.32-1.64-.14-1.85.3zm1.84.25c.42.37 1.72.18 1.94-.25-.5-.37-1.73-.2-1.95.25zm2.64-.06c-.16.06-.6.18-.6.37.06.2.5.26.77.32.6 0 1.1-.06 1.52-.2.5-.1.92-.36.33-.55-.27-.12-.87-.06-1.2-.06-.27 0-.48.07-.8.14zm4.55-.07c-.33.07-.7.13-1.14.25-.17.06-.76.3-.7.56.05.2.53.2.8.2.38-.08.76-.14 1.14-.26.33-.13.7-.25.76-.56-.16-.2-.54-.2-.87-.2z" stroke="#000" stroke-opacity="0" stroke-width=".38"/><path d="M1050 966.56c-13.7 5.96-20.58 3.36-20.58 3.36l1.62 3.22c9.8 1.12 19.9-4.15 19.9-4.15l.47-1.38s-.8.2-1.3-1.12z" stroke="#000" stroke-opacity="0" stroke-width=".38" fill="#e1caa2"/><path d="M1050.98 962.6l-.16-.63s-11.05-4.28-13.55-2.98c0 0-5.74 3.6-8.12 7.2l-.06 2.8s6.82 2.84 20.85-3.3c0 0-.22-1.68 1.03-3.1z" stroke="#000" stroke-opacity="0" stroke-width=".38" fill="#638b18"/><path d="M1051.85 966.63c-.17.12-.33.25-.5.18-.48-.1-.75-1.04-.53-2.16.2-1.05.8-1.86 1.3-1.8.48.13.7 1 .54 2.05 0 0-.54.98-.76 1.66z" stroke="#000" stroke-opacity="0" stroke-width=".38"/><path d="M1058.62 961.54s-2.5-1.68-5.15 1.98c0 0-.38-2.17-2.17-1.24 0 0 .38-3.1.1-3.6 0 0 .72.25.93.7 0 0 1.85-1.75 1.74-4.3 0 0 .48.13.48.75 0 0 .66-1.55 1.36-2.36l.06-.06c2.7-2.35.22 4.66.22 4.66s-.16.3-.32.5c-.1.2 1.3-.43 1.3-1-.06-.55.16.75 0 1 0 0 2.32-1.86 2.38-2.85 0 0 .38.75.27 1.37 0 0 2.12-1.6 2.18-2.36 0 0 .27 4.05-3.74 5.6 0 0 .65 0 1.46-.2z" stroke="#000" stroke-opacity="0" stroke-width=".38" fill="#e1caa2"/><path d="M1059.97 966.32s8.34-1.86 3.9 1.18l-5.1 2.85s.88-1.36 1.2-4.03zm-1.35 4.1l-7.7 3.4s2.4-2.04 1.58-3.16c0 0 4.06-.62 6.12-.25z" stroke="#000" stroke-opacity="0" stroke-width=".38" fill="#638b18"/><path d="M1051.47 969.85c2.16-5.9 3.2-6.57 3.2-6.57 1.02-1.12 2.32-1.56 3.3-1.12.86.37 1.35 1.43 1.35 2.67v.06s-.16 2.97-.97 4.64c0 0-3.14-.43-6.5.44z" stroke="#000" stroke-opacity="0" stroke-width=".38" fill="#60d0e4"/><path d="M1054.5 967.2s1.68-3.3 2.7-2.56c0 0 .28.3-.37 2.48 0 0 2.65-3.3-.1-3.35 0 0-1.9-.06-2.23 3.42zm-25.95 6.56s-2.22-3.35-2.44-2.67c0 0 .18 1.8.23 2.1 0 0-1.68-1.98-.54-2.85 0 0 2.6 1.8 2.75 3.4z" stroke="#000" stroke-opacity="0" stroke-width=".38"/><path d="M1025.95 977.1h.1s1.3-.92 1.64-1.04c0 0-.45 1.36 1.77 1.36 0 0-5.8.3-7.64-1.3 0 0-.16-.68 2.33-1.8 0 0 1.47 2.6 1.8 2.8z" stroke="#000" stroke-opacity="0" stroke-width=".38" fill="#638b18"/><path d="M1033.8 977.98c-2.5-1.1-4.38-1.42-4.38-1.42h-.06c-.37 0-.7-.25-.7-.56 0-.3.33-.56.7-.56h.1s1.85.3 4.73 1.5l.3.1c2.67 1 3.75 1.07 3.75 1.07h.54c.04-.06.32-.18.32-.18.37 0 .7.3.7.62 0 .3-.54.62-.92.68 0 0-1.95.13-5-1.18zm18-6.64v-.12c0-.3-.22-.5-.55-.5h-.22l-2.16 2.42c-.92 1-3.1 3.42-4 3.54l-.55.06c-.06-.12-.27-.3-.27-.3-.17-.13-.38-.2-.55-.13-.32.07-.48.44-.38.75.06.2.1.25.22.37 0 0 1.52 1.56 4.17-1.24l2.83-2.98s1.35-1.48 1.46-1.8z" stroke="#000" stroke-opacity="0" stroke-width=".38"/><path d="M1056.34 982.14c0 2.92-2.33 5.27-5.25 5.27-2.94 0-5.32-2.34-5.32-5.26s2.38-5.27 5.3-5.27c2.93 0 5.26 2.35 5.26 5.27zm-16.36 3.85c0 2.9-2.38 5.26-5.3 5.26-2.93 0-5.26-2.36-5.26-5.27 0-2.93 2.33-5.3 5.25-5.3 2.93 0 5.3 2.37 5.3 5.3zm4.4 8.43c.15.8.48 2.48 1.56 2.3 1.14-.13.7-2.37.7-2.37s-1.9-.06-2.1 0zm-.66.24s-1.03.44-1.84.94c0 0 .43 2.12 1.8 1.5 0 0 .85-.25.1-2.3zm-2.6-4.65s-6.5 2-3.3 5.28c2.05 2.1 4.98-1.56 6.5-1.5 0 0 .38-.18 1.13-.06.7.07 5.53.5 6.02-1.42.43-2-.17-2.3-.5-2.5-.37-.23-2.92-1.72-6.7-.67z" stroke="#000" stroke-opacity="0" stroke-width=".38" fill="#fff"/><path d="M1035.87 987.8c0 .92-.7 1.66-1.63 1.66-.92 0-1.68-.74-1.68-1.67 0-.94.76-1.7 1.68-1.7.92 0 1.63.76 1.63 1.7zM1050.38 982.2c.92 0 1.68.75 1.68 1.62 0 .93-.76 1.67-1.68 1.67-.92 0-1.62-.75-1.62-1.68 0-.87.7-1.62 1.62-1.62z" stroke="#000" stroke-opacity="0" stroke-width=".38"/><path d="M1043.18 987.97c1.57-.3 3.03.13 3.2 1 .16.86-.98 1.86-2.55 2.17-1.57.3-3.04-.13-3.2-1-.16-.86.98-1.8 2.55-2.17z" stroke="#000" stroke-opacity="0" stroke-width=".37"/><path d="M1040.47 991.08s-4.12 1.92-2.17 3.47c0 0 2.82-.93 5.58-1.43 0 0 6.02.3 6.67-.93 0 0 .86-2.18-3.7-2.6 0 0-.37 1.97-2.8 2.22-2.44.25-2.82-.2-3.58-.74z" stroke="#000" stroke-opacity="0" stroke-width=".38" fill="#e1caa2"/><path d="M1072.8 1000.07s6.78 1.43-2.97 2.86c0 0 2.28-.93 2.98-2.86z" stroke="#000" stroke-opacity="0" stroke-width=".38" fill="#231f20"/><path d="M1068.2 1000.76s-.2-3.48-2.27-5.34c0 0 1.73-2.48 2.87-1.92 0 0 6.07 3.84 1.8 8.2 0 0-1.85 1.3-2.4-.76z" stroke="#000" stroke-opacity="0" stroke-width=".38" fill="#e1caa2"/><path d="M1025.08 999.95s-.37 1.74-.1 2.48c0 0-5.85-1-.27-2.42z" stroke="#000" stroke-opacity="0" stroke-width=".38"/><path d="M1027.9 996.04s-3.63 4.28-1.73 7.76c1.52 2.85 4.6-.38 4.66-.5z" stroke="#000" stroke-opacity="0" stroke-width=".38" fill="#e1caa2"/><path d="M1000 1023.94h96v24h-96z" stroke="#000" stroke-opacity="0" stroke-width="2" fill="#fff" fill-opacity="0"/><g><use xlink:href="#U" transform="matrix(1,0,0,1,1005,1028.9396949693978) translate(15.524999999999999 14.4)"/></g><path d="M672 380c-14.95 0-27.1 12.13-27.1 27.1 0 14.94 12.15 27.07 27.1 27.07 14.95 0 27.1-12.13 27.1-27.08 0-14.97-12.15-27.1-27.1-27.1zm0 50.7c-4.28 0-7.7-2.87-7.7-6.33h15.4c0 3.46-3.47 6.34-7.7 6.34zm12.73-8.44h-25.46v-4.6h25.46zm-.1-7h-25.3l-.22-.32c-2.6-3.14-3.24-4.82-3.84-6.5 0-.05 3.2.65 5.42 1.2 0 0 1.14.26 2.87.53-1.63-1.9-2.6-4.33-2.6-6.77 0-5.4 4.17-10.18 2.65-14.03 1.47.1 3.04 3.1 3.15 7.75 1.57-2.17 2.22-6.07 2.22-8.5 0-2.5 1.62-5.37 3.25-5.48-1.47 2.44.38 4.5 2 9.6.65 1.94.54 5.2 1.03 7.25.16-4.3.87-10.52 3.63-12.7-1.25 2.72.16 6.13 1.08 7.76 1.52 2.6 2.44 4.6 2.44 8.4 0 2.5-.92 4.87-2.5 6.77l3.04-.65 5.8-1.14s-.87 3.47-4.12 6.83z" stroke="#000" stroke-opacity="0" fill="#da4e31"/><path d="M606 440h132v33H606z" stroke="#000" stroke-opacity="0" stroke-width="2" fill="#fff" fill-opacity="0"/><g><use xlink:href="#V" transform="matrix(1,0,0,1,611,445) translate(12.549999999999997 15.8375)"/></g><path d="M663.24 307.14l3 1.24 2.6 2 2 2.6 1.24 3 .42 3.2v60.32h-1v-60.25l-.4-3.02-1.14-2.75-1.83-2.4-2.4-1.83-2.75-1.14-3-.38h-53.5v-1h53.55zm-382.86.58v-1h262.3v1z" fill="#666"/><path d="M672.5 380.02l-.5-.02-.5.05v-.56h1zM279.88 311.85l-14.26-4.63 14.26-4.64z" fill="#666"/><path d="M280.38 312.54L264 307.22l16.38-5.33zm-13.14-5.32l12.14 3.94v-7.9z" fill="#666"/><g><use xlink:href="#W" transform="matrix(1,0,0,1,542.6707411500872,296.417) translate(0 14.4)"/></g><defs><path fill="#a9afb8" d="M24 0v-248h52v208h133V0H24" id="X"/><path fill="#a9afb8" d="M110-194c64 0 96 36 96 99 0 64-35 99-97 99-61 0-95-36-95-99 0-62 34-99 96-99zm-1 164c35 0 45-28 45-65 0-40-10-65-43-65-34 0-45 26-45 65 0 36 10 65 43 65" id="Y"/><path fill="#a9afb8" d="M195-6C206 82 75 100 31 46c-4-6-6-13-8-21l49-6c3 16 16 24 34 25 40 0 42-37 40-79-11 22-30 35-61 35-53 0-70-43-70-97 0-56 18-96 73-97 30 0 46 14 59 34l2-30h47zm-90-29c32 0 41-27 41-63 0-35-9-62-40-62-32 0-39 29-40 63 0 36 9 62 39 62" id="Z"/><path fill="#a9afb8" d="M25-224v-37h50v37H25zM25 0v-190h50V0H25" id="aa"/><path fill="#a9afb8" d="M135-194c87-1 58 113 63 194h-50c-7-57 23-157-34-157-59 0-34 97-39 157H25l-1-190h47c2 12-1 28 3 38 12-26 28-41 61-42" id="ab"/><path fill="#a9afb8" d="M76-54c-1 42 2 86-19 110H24C36 42 46 24 48 0H25v-54h51" id="ac"/><g id="a"><use transform="matrix(0.0728395061728395,0,0,0.0728395061728395,0,0)" xlink:href="#X"/><use transform="matrix(0.0728395061728395,0,0,0.0728395061728395,15.95185185185185,0)" xlink:href="#Y"/><use transform="matrix(0.0728395061728395,0,0,0.0728395061728395,31.9037037037037,0)" xlink:href="#Z"/><use transform="matrix(0.0728395061728395,0,0,0.0728395061728395,47.855555555555554,0)" xlink:href="#Z"/><use transform="matrix(0.0728395061728395,0,0,0.0728395061728395,63.8074074074074,0)" xlink:href="#aa"/><use transform="matrix(0.0728395061728395,0,0,0.0728395061728395,71.09135802469136,0)" xlink:href="#ab"/><use transform="matrix(0.0728395061728395,0,0,0.0728395061728395,87.0432098765432,0)" xlink:href="#Z"/><use transform="matrix(0.0728395061728395,0,0,0.0728395061728395,102.99506172839507,0)" xlink:href="#ac"/></g><path fill="#a9afb8" d="M220-157c-53 9-28 100-34 157h-49v-107c1-27-5-49-29-50C55-147 81-57 75 0H25l-1-190h47c2 12-1 28 3 38 10-53 101-56 108 0 13-22 24-43 59-42 82 1 51 116 57 194h-49v-107c-1-25-5-48-29-50" id="ad"/><path fill="#a9afb8" d="M185-48c-13 30-37 53-82 52C43 2 14-33 14-96s30-98 90-98c62 0 83 45 84 108H66c0 31 8 55 39 56 18 0 30-7 34-22zm-45-69c5-46-57-63-70-21-2 6-4 13-4 21h74" id="ae"/><path fill="#a9afb8" d="M115-3C79 11 28 4 28-45v-112H4v-33h27l15-45h31v45h36v33H77v99c-1 23 16 31 38 25v30" id="af"/><path fill="#a9afb8" d="M135-150c-39-12-60 13-60 57V0H25l-1-190h47c2 13-1 29 3 40 6-28 27-53 61-41v41" id="ag"/><path fill="#a9afb8" d="M190-63c-7 42-38 67-86 67-59 0-84-38-90-98-12-110 154-137 174-36l-49 2c-2-19-15-32-35-32-30 0-35 28-38 64-6 74 65 87 74 30" id="ah"/><path fill="#a9afb8" d="M137-138c1-29-70-34-71-4 15 46 118 7 119 86 1 83-164 76-172 9l43-7c4 19 20 25 44 25 33 8 57-30 24-41C81-84 22-81 20-136c-2-80 154-74 161-7" id="ai"/><g id="b"><use transform="matrix(0.0728395061728395,0,0,0.0728395061728395,0,0)" xlink:href="#ad"/><use transform="matrix(0.0728395061728395,0,0,0.0728395061728395,23.308641975308642,0)" xlink:href="#ae"/><use transform="matrix(0.0728395061728395,0,0,0.0728395061728395,37.876543209876544,0)" xlink:href="#af"/><use transform="matrix(0.0728395061728395,0,0,0.0728395061728395,46.544444444444444,0)" xlink:href="#ag"/><use transform="matrix(0.0728395061728395,0,0,0.0728395061728395,56.741975308641976,0)" xlink:href="#aa"/><use transform="matrix(0.0728395061728395,0,0,0.0728395061728395,64.02592592592593,0)" xlink:href="#ah"/><use transform="matrix(0.0728395061728395,0,0,0.0728395061728395,78.59382716049383,0)" xlink:href="#ai"/></g><path fill="#a9afb8" d="M133-34C117-15 103 5 69 4 32 3 11-16 11-54c-1-60 55-63 116-61 1-26-3-47-28-47-18 1-26 9-28 27l-52-2c7-38 36-58 82-57s74 22 75 68l1 82c-1 14 12 18 25 15v27c-30 8-71 5-69-32zm-48 3c29 0 43-24 42-57-32 0-66-3-65 30 0 17 8 27 23 27" id="aj"/><path fill="#a9afb8" d="M88-194c31-1 46 15 58 34l-1-101h50l1 261h-48c-2-10 0-23-3-31C134-8 116 4 84 4 32 4 16-41 15-95c0-56 19-97 73-99zm17 164c33 0 40-30 41-66 1-37-9-64-41-64s-38 30-39 65c0 43 13 65 39 65" id="ak"/><g id="c"><use transform="matrix(0.0728395061728395,0,0,0.0728395061728395,0,0)" xlink:href="#aj"/><use transform="matrix(0.0728395061728395,0,0,0.0728395061728395,14.5679012345679,0)" xlink:href="#ab"/><use transform="matrix(0.0728395061728395,0,0,0.0728395061728395,30.51975308641975,0)" xlink:href="#ak"/></g><g id="d"><use transform="matrix(0.0728395061728395,0,0,0.0728395061728395,0,0)" xlink:href="#af"/><use transform="matrix(0.0728395061728395,0,0,0.0728395061728395,8.667901234567902,0)" xlink:href="#ag"/><use transform="matrix(0.0728395061728395,0,0,0.0728395061728395,18.86543209876543,0)" xlink:href="#aj"/><use transform="matrix(0.0728395061728395,0,0,0.0728395061728395,33.43333333333333,0)" xlink:href="#ah"/><use transform="matrix(0.0728395061728395,0,0,0.0728395061728395,48.00123456790123,0)" xlink:href="#ae"/><use transform="matrix(0.0728395061728395,0,0,0.0728395061728395,62.56913580246913,0)" xlink:href="#ai"/></g><path fill="#a9afb8" d="M14-72v-43h91v43H14" id="al"/><use transform="matrix(0.0728395061728395,0,0,0.0728395061728395,0,0)" xlink:href="#al" id="e"/><path fill="#a9afb8" d="M169-182c-1-43-94-46-97-3 18 66 151 10 154 114 3 95-165 93-204 36-6-8-10-19-12-30l50-8c3 46 112 56 116 5-17-69-150-10-154-114-4-87 153-88 188-35 5 8 8 18 10 28" id="am"/><path fill="#a9afb8" d="M18-269v-5l45-45h45v8l-60 42H18zM24 0v-248h52V0H24" id="an"/><g id="f"><use transform="matrix(0.0728395061728395,0,0,0.0728395061728395,0,0)" xlink:href="#am"/><use transform="matrix(0.0728395061728395,0,0,0.0728395061728395,17.48148148148148,0)" xlink:href="#an"/></g><path fill="#a9afb8" d="M205 0l-28-72H64L36 0H1l101-248h38L239 0h-34zm-38-99l-47-123c-12 45-31 82-46 123h93" id="ao"/><path fill="#a9afb8" d="M117-194c89-4 53 116 60 194h-32v-121c0-31-8-49-39-48C34-167 62-67 57 0H25l-1-190h30c1 10-1 24 2 32 11-22 29-35 61-36" id="ap"/><path fill="#a9afb8" d="M85-194c31 0 48 13 60 33l-1-100h32l1 261h-30c-2-10 0-23-3-31C134-8 116 4 85 4 32 4 16-35 15-94c0-66 23-100 70-100zm9 24c-40 0-46 34-46 75 0 40 6 74 45 74 42 0 51-32 51-76 0-42-9-74-50-73" id="aq"/><path fill="#a9afb8" d="M100-194c63 0 86 42 84 106H49c0 40 14 67 53 68 26 1 43-12 49-29l28 8c-11 28-37 45-77 45C44 4 14-33 15-96c1-61 26-98 85-98zm52 81c6-60-76-77-97-28-3 7-6 17-6 28h103" id="ar"/><path fill="#a9afb8" d="M135-143c-3-34-86-38-87 0 15 53 115 12 119 90S17 21 10-45l28-5c4 36 97 45 98 0-10-56-113-15-118-90-4-57 82-63 122-42 12 7 21 19 24 35" id="as"/><g id="g"><use transform="matrix(0.04248971193415638,0,0,0.04248971193415638,0,0)" xlink:href="#ao"/><use transform="matrix(0.04248971193415638,0,0,0.04248971193415638,10.19753086419753,0)" xlink:href="#ap"/><use transform="matrix(0.04248971193415638,0,0,0.04248971193415638,18.695473251028805,0)" xlink:href="#aq"/><use transform="matrix(0.04248971193415638,0,0,0.04248971193415638,27.193415637860078,0)" xlink:href="#ar"/><use transform="matrix(0.04248971193415638,0,0,0.04248971193415638,35.691358024691354,0)" xlink:href="#as"/></g><path fill="#a9afb8" d="M32 76v-337h29V76H32" id="at"/><use transform="matrix(0.04248971193415638,0,0,0.04248971193415638,0,0)" xlink:href="#at" id="h"/><path fill="#a9afb8" d="M153-248C145-148 188 4 80 4 36 3 13-21 6-62l32-5c4 25 16 42 43 43 27 0 39-20 39-49v-147H72v-28h81" id="au"/><path fill="#a9afb8" d="M84 4C-5 8 30-112 23-190h32v120c0 31 7 50 39 49 72-2 45-101 50-169h31l1 190h-30c-1-10 1-25-2-33-11 22-28 36-60 37" id="av"/><path fill="#a9afb8" d="M24 0v-261h32V0H24" id="aw"/><path fill="#a9afb8" d="M179-190L93 31C79 59 56 82 12 73V49c39 6 53-20 64-50L1-190h34L92-34l54-156h33" id="ax"/><g id="i"><use transform="matrix(0.04248971193415638,0,0,0.04248971193415638,0,0)" xlink:href="#au"/><use transform="matrix(0.04248971193415638,0,0,0.04248971193415638,7.648148148148148,0)" xlink:href="#av"/><use transform="matrix(0.04248971193415638,0,0,0.04248971193415638,16.14609053497942,0)" xlink:href="#aw"/><use transform="matrix(0.04248971193415638,0,0,0.04248971193415638,19.502777777777776,0)" xlink:href="#ax"/></g><path fill="#a9afb8" d="M101-251c82-7 93 87 43 132L82-64C71-53 59-42 53-27h129V0H18c2-99 128-94 128-182 0-28-16-43-45-43s-46 15-49 41l-32-3c6-41 34-60 81-64" id="ay"/><path fill="#a9afb8" d="M126-127c33 6 58 20 58 59 0 88-139 92-164 29-3-8-5-16-6-25l32-3c6 27 21 44 54 44 32 0 52-15 52-46 0-38-36-46-79-43v-28c39 1 72-4 72-42 0-27-17-43-46-43-28 0-47 15-49 41l-32-3c6-42 35-63 81-64 48-1 79 21 79 65 0 36-21 52-52 59" id="az"/><path fill="#a9afb8" d="M68-38c1 34 0 65-14 84H32c9-13 17-26 17-46H33v-38h35" id="aA"/><g id="j"><use transform="matrix(0.04248971193415638,0,0,0.04248971193415638,0,0)" xlink:href="#ay"/><use transform="matrix(0.04248971193415638,0,0,0.04248971193415638,8.497942386831275,0)" xlink:href="#az"/><use transform="matrix(0.04248971193415638,0,0,0.04248971193415638,16.99588477366255,0)" xlink:href="#aA"/></g><path fill="#a9afb8" d="M101-251c68 0 85 55 85 127S166 4 100 4C33 4 14-52 14-124c0-73 17-127 87-127zm-1 229c47 0 54-49 54-102s-4-102-53-102c-51 0-55 48-55 102 0 53 5 102 54 102" id="aB"/><g id="k"><use transform="matrix(0.04248971193415638,0,0,0.04248971193415638,0,0)" xlink:href="#ay"/><use transform="matrix(0.04248971193415638,0,0,0.04248971193415638,8.497942386831275,0)" xlink:href="#aB"/><use transform="matrix(0.04248971193415638,0,0,0.04248971193415638,16.99588477366255,0)" xlink:href="#ay"/><use transform="matrix(0.04248971193415638,0,0,0.04248971193415638,25.493827160493822,0)" xlink:href="#aB"/></g><path fill="#232f3e" d="M205 0l-28-72H64L36 0H1l101-248h38L239 0h-34zm-38-99l-47-123c-12 45-31 82-46 123h93" id="aC"/><path fill="#232f3e" d="M266 0h-40l-56-210L115 0H75L2-248h35L96-30l15-64 43-154h32l59 218 59-218h35" id="aD"/><path fill="#232f3e" d="M185-189c-5-48-123-54-124 2 14 75 158 14 163 119 3 78-121 87-175 55-17-10-28-26-33-46l33-7c5 56 141 63 141-1 0-78-155-14-162-118-5-82 145-84 179-34 5 7 8 16 11 25" id="aE"/><g id="l"><use transform="matrix(0.05,0,0,0.05,0,0)" xlink:href="#aC"/><use transform="matrix(0.05,0,0,0.05,11.35,0)" xlink:href="#aD"/><use transform="matrix(0.05,0,0,0.05,28.299999999999997,0)" xlink:href="#aE"/></g><path fill="#232f3e" d="M212-179c-10-28-35-45-73-45-59 0-87 40-87 99 0 60 29 101 89 101 43 0 62-24 78-52l27 14C228-24 195 4 139 4 59 4 22-46 18-125c-6-104 99-153 187-111 19 9 31 26 39 46" id="aF"/><path fill="#232f3e" d="M24 0v-261h32V0H24" id="aG"/><path fill="#232f3e" d="M100-194c62-1 85 37 85 99 1 63-27 99-86 99S16-35 15-95c0-66 28-99 85-99zM99-20c44 1 53-31 53-75 0-43-8-75-51-75s-53 32-53 75 10 74 51 75" id="aH"/><path fill="#232f3e" d="M84 4C-5 8 30-112 23-190h32v120c0 31 7 50 39 49 72-2 45-101 50-169h31l1 190h-30c-1-10 1-25-2-33-11 22-28 36-60 37" id="aI"/><path fill="#232f3e" d="M85-194c31 0 48 13 60 33l-1-100h32l1 261h-30c-2-10 0-23-3-31C134-8 116 4 85 4 32 4 16-35 15-94c0-66 23-100 70-100zm9 24c-40 0-46 34-46 75 0 40 6 74 45 74 42 0 51-32 51-76 0-42-9-74-50-73" id="aJ"/><g id="m"><use transform="matrix(0.05,0,0,0.05,0,0)" xlink:href="#aF"/><use transform="matrix(0.05,0,0,0.05,12.950000000000001,0)" xlink:href="#aG"/><use transform="matrix(0.05,0,0,0.05,16.900000000000002,0)" xlink:href="#aH"/><use transform="matrix(0.05,0,0,0.05,26.900000000000002,0)" xlink:href="#aI"/><use transform="matrix(0.05,0,0,0.05,36.900000000000006,0)" xlink:href="#aJ"/></g><path fill="#248814" d="M137 0h-34L2-248h35l83 218 83-218h36" id="aK"/><path fill="#248814" d="M30-248c87 1 191-15 191 75 0 78-77 80-158 76V0H30v-248zm33 125c57 0 124 11 124-50 0-59-68-47-124-48v98" id="aL"/><path fill="#248814" d="M212-179c-10-28-35-45-73-45-59 0-87 40-87 99 0 60 29 101 89 101 43 0 62-24 78-52l27 14C228-24 195 4 139 4 59 4 22-46 18-125c-6-104 99-153 187-111 19 9 31 26 39 46" id="aM"/><g id="n"><use transform="matrix(0.05,0,0,0.05,0,0)" xlink:href="#aK"/><use transform="matrix(0.05,0,0,0.05,12,0)" xlink:href="#aL"/><use transform="matrix(0.05,0,0,0.05,24,0)" xlink:href="#aM"/></g><path fill="#248814" d="M30-248c118-7 216 8 213 122C240-48 200 0 122 0H30v-248zM63-27c89 8 146-16 146-99s-60-101-146-95v194" id="aN"/><path fill="#248814" d="M100-194c63 0 86 42 84 106H49c0 40 14 67 53 68 26 1 43-12 49-29l28 8c-11 28-37 45-77 45C44 4 14-33 15-96c1-61 26-98 85-98zm52 81c6-60-76-77-97-28-3 7-6 17-6 28h103" id="aO"/><path fill="#248814" d="M108 0H70L1-190h34L89-25l56-165h34" id="aP"/><g id="o"><use transform="matrix(0.05,0,0,0.05,0,0)" xlink:href="#aN"/><use transform="matrix(0.05,0,0,0.05,12.950000000000001,0)" xlink:href="#aO"/><use transform="matrix(0.05,0,0,0.05,22.950000000000003,0)" xlink:href="#aP"/></g><path fill="#248814" d="M185-189c-5-48-123-54-124 2 14 75 158 14 163 119 3 78-121 87-175 55-17-10-28-26-33-46l33-7c5 56 141 63 141-1 0-78-155-14-162-118-5-82 145-84 179-34 5 7 8 16 11 25" id="aQ"/><path fill="#248814" d="M106-169C34-169 62-67 57 0H25v-261h32l-1 103c12-21 28-36 61-36 89 0 53 116 60 194h-32v-121c2-32-8-49-39-48" id="aR"/><path fill="#248814" d="M141-36C126-15 110 5 73 4 37 3 15-17 15-53c-1-64 63-63 125-63 3-35-9-54-41-54-24 1-41 7-42 31l-33-3c5-37 33-52 76-52 45 0 72 20 72 64v82c-1 20 7 32 28 27v20c-31 9-61-2-59-35zM48-53c0 20 12 33 32 33 41-3 63-29 60-74-43 2-92-5-92 41" id="aS"/><path fill="#248814" d="M114-163C36-179 61-72 57 0H25l-1-190h30c1 12-1 29 2 39 6-27 23-49 58-41v29" id="aT"/><path fill="#248814" d="M85-194c31 0 48 13 60 33l-1-100h32l1 261h-30c-2-10 0-23-3-31C134-8 116 4 85 4 32 4 16-35 15-94c0-66 23-100 70-100zm9 24c-40 0-46 34-46 75 0 40 6 74 45 74 42 0 51-32 51-76 0-42-9-74-50-73" id="aU"/><g id="p"><use transform="matrix(0.05,0,0,0.05,0,0)" xlink:href="#aQ"/><use transform="matrix(0.05,0,0,0.05,12,0)" xlink:href="#aR"/><use transform="matrix(0.05,0,0,0.05,22,0)" xlink:href="#aS"/><use transform="matrix(0.05,0,0,0.05,32,0)" xlink:href="#aT"/><use transform="matrix(0.05,0,0,0.05,37.95,0)" xlink:href="#aO"/><use transform="matrix(0.05,0,0,0.05,47.95,0)" xlink:href="#aU"/></g><path fill="#5a6c86" d="M30 0v-248h187v28H63v79h144v27H63v87h162V0H30" id="aV"/><path fill="#5a6c86" d="M194 0L95-120 63-95V0H30v-248h33v124l119-124h40L117-140 236 0h-42" id="aW"/><path fill="#5a6c86" d="M185-189c-5-48-123-54-124 2 14 75 158 14 163 119 3 78-121 87-175 55-17-10-28-26-33-46l33-7c5 56 141 63 141-1 0-78-155-14-162-118-5-82 145-84 179-34 5 7 8 16 11 25" id="aX"/><g id="q"><use transform="matrix(0.05,0,0,0.05,0,0)" xlink:href="#aV"/><use transform="matrix(0.05,0,0,0.05,12,0)" xlink:href="#aW"/><use transform="matrix(0.05,0,0,0.05,24,0)" xlink:href="#aX"/></g><path d="M205 0l-28-72H64L36 0H1l101-248h38L239 0h-34zm-38-99l-47-123c-12 45-31 82-46 123h93" id="aY"/><path d="M210-169c-67 3-38 105-44 169h-31v-121c0-29-5-50-35-48C34-165 62-65 56 0H25l-1-190h30c1 10-1 24 2 32 10-44 99-50 107 0 11-21 27-35 58-36 85-2 47 119 55 194h-31v-121c0-29-5-49-35-48" id="aZ"/><path d="M141-36C126-15 110 5 73 4 37 3 15-17 15-53c-1-64 63-63 125-63 3-35-9-54-41-54-24 1-41 7-42 31l-33-3c5-37 33-52 76-52 45 0 72 20 72 64v82c-1 20 7 32 28 27v20c-31 9-61-2-59-35zM48-53c0 20 12 33 32 33 41-3 63-29 60-74-43 2-92-5-92 41" id="ba"/><path d="M9 0v-24l116-142H16v-24h144v24L44-24h123V0H9" id="bb"/><path d="M100-194c62-1 85 37 85 99 1 63-27 99-86 99S16-35 15-95c0-66 28-99 85-99zM99-20c44 1 53-31 53-75 0-43-8-75-51-75s-53 32-53 75 10 74 51 75" id="bc"/><path d="M117-194c89-4 53 116 60 194h-32v-121c0-31-8-49-39-48C34-167 62-67 57 0H25l-1-190h30c1 10-1 24 2 32 11-22 29-35 61-36" id="bd"/><g id="r"><use transform="matrix(0.05,0,0,0.05,0,0)" xlink:href="#aY"/><use transform="matrix(0.05,0,0,0.05,12,0)" xlink:href="#aZ"/><use transform="matrix(0.05,0,0,0.05,26.950000000000003,0)" xlink:href="#ba"/><use transform="matrix(0.05,0,0,0.05,36.95,0)" xlink:href="#bb"/><use transform="matrix(0.05,0,0,0.05,45.95,0)" xlink:href="#bc"/><use transform="matrix(0.05,0,0,0.05,55.95,0)" xlink:href="#bd"/></g><path d="M30 0v-248h187v28H63v79h144v27H63v87h162V0H30" id="be"/><path d="M24 0v-261h32V0H24" id="bf"/><path d="M135-143c-3-34-86-38-87 0 15 53 115 12 119 90S17 21 10-45l28-5c4 36 97 45 98 0-10-56-113-15-118-90-4-57 82-63 122-42 12 7 21 19 24 35" id="bg"/><path d="M59-47c-2 24 18 29 38 22v24C64 9 27 4 27-40v-127H5v-23h24l9-43h21v43h35v23H59v120" id="bh"/><path d="M24-231v-30h32v30H24zM24 0v-190h32V0H24" id="bi"/><path d="M96-169c-40 0-48 33-48 73s9 75 48 75c24 0 41-14 43-38l32 2c-6 37-31 61-74 61-59 0-76-41-82-99-10-93 101-131 147-64 4 7 5 14 7 22l-32 3c-4-21-16-35-41-35" id="bj"/><path d="M100-194c63 0 86 42 84 106H49c0 40 14 67 53 68 26 1 43-12 49-29l28 8c-11 28-37 45-77 45C44 4 14-33 15-96c1-61 26-98 85-98zm52 81c6-60-76-77-97-28-3 7-6 17-6 28h103" id="bk"/><path d="M114-163C36-179 61-72 57 0H25l-1-190h30c1 12-1 29 2 39 6-27 23-49 58-41v29" id="bl"/><path d="M106-169C34-169 62-67 57 0H25v-261h32l-1 103c12-21 28-36 61-36 89 0 53 116 60 194h-32v-121c2-32-8-49-39-48" id="bm"/><g id="s"><use transform="matrix(0.05,0,0,0.05,0,0)" xlink:href="#be"/><use transform="matrix(0.05,0,0,0.05,12,0)" xlink:href="#bf"/><use transform="matrix(0.05,0,0,0.05,15.949999999999998,0)" xlink:href="#ba"/><use transform="matrix(0.05,0,0,0.05,25.950000000000003,0)" xlink:href="#bg"/><use transform="matrix(0.05,0,0,0.05,34.95,0)" xlink:href="#bh"/><use transform="matrix(0.05,0,0,0.05,39.95,0)" xlink:href="#bi"/><use transform="matrix(0.05,0,0,0.05,43.900000000000006,0)" xlink:href="#bj"/><use transform="matrix(0.05,0,0,0.05,52.900000000000006,0)" xlink:href="#bg"/><use transform="matrix(0.05,0,0,0.05,61.900000000000006,0)" xlink:href="#bk"/><use transform="matrix(0.05,0,0,0.05,71.9,0)" xlink:href="#ba"/><use transform="matrix(0.05,0,0,0.05,81.9,0)" xlink:href="#bl"/><use transform="matrix(0.05,0,0,0.05,87.85000000000001,0)" xlink:href="#bj"/><use transform="matrix(0.05,0,0,0.05,96.85000000000001,0)" xlink:href="#bm"/></g><path d="M118-107v75H92v-75H18v-26h74v-75h26v75h74v26h-74" id="bn"/><use transform="matrix(0.05,0,0,0.05,0,0)" xlink:href="#bn" id="t"/><path d="M194 0L95-120 63-95V0H30v-248h33v124l119-124h40L117-140 236 0h-42" id="bo"/><path d="M115-194c53 0 69 39 70 98 0 66-23 100-70 100C84 3 66-7 56-30L54 0H23l1-261h32v101c10-23 28-34 59-34zm-8 174c40 0 45-34 45-75 0-40-5-75-45-74-42 0-51 32-51 76 0 43 10 73 51 73" id="bp"/><g id="u"><use transform="matrix(0.05,0,0,0.05,0,0)" xlink:href="#bo"/><use transform="matrix(0.05,0,0,0.05,12,0)" xlink:href="#bi"/><use transform="matrix(0.05,0,0,0.05,15.949999999999998,0)" xlink:href="#bp"/><use transform="matrix(0.05,0,0,0.05,25.950000000000003,0)" xlink:href="#ba"/><use transform="matrix(0.05,0,0,0.05,35.95,0)" xlink:href="#bd"/><use transform="matrix(0.05,0,0,0.05,45.95,0)" xlink:href="#ba"/></g><path d="M30-248c87 1 191-15 191 75 0 78-77 80-158 76V0H30v-248zm33 125c57 0 124 11 124-50 0-59-68-47-124-48v98" id="bq"/><path d="M85-194c31 0 48 13 60 33l-1-100h32l1 261h-30c-2-10 0-23-3-31C134-8 116 4 85 4 32 4 16-35 15-94c0-66 23-100 70-100zm9 24c-40 0-46 34-46 75 0 40 6 74 45 74 42 0 51-32 51-76 0-42-9-74-50-73" id="br"/><g id="v"><use transform="matrix(0.05,0,0,0.05,0,0)" xlink:href="#bq"/><use transform="matrix(0.05,0,0,0.05,12,0)" xlink:href="#bc"/><use transform="matrix(0.05,0,0,0.05,22,0)" xlink:href="#br"/></g><path d="M185-189c-5-48-123-54-124 2 14 75 158 14 163 119 3 78-121 87-175 55-17-10-28-26-33-46l33-7c5 56 141 63 141-1 0-78-155-14-162-118-5-82 145-84 179-34 5 7 8 16 11 25" id="bs"/><path d="M115-194c55 1 70 41 70 98S169 2 115 4C84 4 66-9 55-30l1 105H24l-1-265h31l2 30c10-21 28-34 59-34zm-8 174c40 0 45-34 45-75s-6-73-45-74c-42 0-51 32-51 76 0 43 10 73 51 73" id="bt"/><g id="w"><use transform="matrix(0.05,0,0,0.05,0,0)" xlink:href="#bs"/><use transform="matrix(0.05,0,0,0.05,12,0)" xlink:href="#bj"/><use transform="matrix(0.05,0,0,0.05,21,0)" xlink:href="#bl"/><use transform="matrix(0.05,0,0,0.05,26.950000000000003,0)" xlink:href="#ba"/><use transform="matrix(0.05,0,0,0.05,36.95,0)" xlink:href="#bt"/><use transform="matrix(0.05,0,0,0.05,46.95,0)" xlink:href="#bk"/></g><g id="x"><use transform="matrix(0.05,0,0,0.05,0,0)" xlink:href="#aZ"/><use transform="matrix(0.05,0,0,0.05,14.950000000000001,0)" xlink:href="#bk"/><use transform="matrix(0.05,0,0,0.05,24.950000000000003,0)" xlink:href="#bh"/><use transform="matrix(0.05,0,0,0.05,29.950000000000003,0)" xlink:href="#bl"/><use transform="matrix(0.05,0,0,0.05,35.900000000000006,0)" xlink:href="#bi"/><use transform="matrix(0.05,0,0,0.05,39.85000000000001,0)" xlink:href="#bj"/><use transform="matrix(0.05,0,0,0.05,48.85000000000001,0)" xlink:href="#bg"/></g><path d="M140-251c81 0 123 46 123 126C263-53 228-8 163 1c7 30 30 48 69 40v23c-55 16-95-15-103-61C56-3 17-48 17-125c0-80 42-126 123-126zm0 227c63 0 89-41 89-101s-29-99-89-99c-61 0-89 39-89 99S79-25 140-24" id="bu"/><path d="M84 4C-5 8 30-112 23-190h32v120c0 31 7 50 39 49 72-2 45-101 50-169h31l1 190h-30c-1-10 1-25-2-33-11 22-28 36-60 37" id="bv"/><path d="M179-190L93 31C79 59 56 82 12 73V49c39 6 53-20 64-50L1-190h34L92-34l54-156h33" id="bw"/><g id="y"><use transform="matrix(0.05,0,0,0.05,0,0)" xlink:href="#bu"/><use transform="matrix(0.05,0,0,0.05,14,0)" xlink:href="#bv"/><use transform="matrix(0.05,0,0,0.05,24,0)" xlink:href="#bk"/><use transform="matrix(0.05,0,0,0.05,34,0)" xlink:href="#bl"/><use transform="matrix(0.05,0,0,0.05,39.95,0)" xlink:href="#bw"/></g><g id="z"><use transform="matrix(0.05,0,0,0.05,0,0)" xlink:href="#bs"/><use transform="matrix(0.05,0,0,0.05,12,0)" xlink:href="#bk"/><use transform="matrix(0.05,0,0,0.05,22,0)" xlink:href="#bd"/><use transform="matrix(0.05,0,0,0.05,32,0)" xlink:href="#br"/></g><g id="A"><use transform="matrix(0.05,0,0,0.05,0,0)" xlink:href="#bh"/><use transform="matrix(0.05,0,0,0.05,5,0)" xlink:href="#bl"/><use transform="matrix(0.05,0,0,0.05,10.95,0)" xlink:href="#ba"/><use transform="matrix(0.05,0,0,0.05,20.95,0)" xlink:href="#bj"/><use transform="matrix(0.05,0,0,0.05,29.950000000000003,0)" xlink:href="#bk"/><use transform="matrix(0.05,0,0,0.05,39.95,0)" xlink:href="#bg"/></g><linearGradient gradientUnits="userSpaceOnUse" id="B" x1="640" y1="534.91" x2="704.02" y2="534.91"><stop offset="0%" stop-color="#2a59a2"/><stop offset="100%" stop-color="#2a59a2"/></linearGradient><linearGradient gradientUnits="userSpaceOnUse" id="C" x1="637.41" y1="523.98" x2="705.1" y2="523.98"><stop offset="0%" stop-color="#91d3f2"/><stop offset="26.6%" stop-color="#6fb2de"/><stop offset="52.1%" stop-color="#5598ce"/><stop offset="67.3%" stop-color="#4b8fc8"/></linearGradient><linearGradient gradientUnits="userSpaceOnUse" id="D" x1="640" y1="549.81" x2="704.47" y2="549.81"><stop offset="0%" stop-color="#2c9ec7"/><stop offset="40.4%" stop-color="#2c63a5"/><stop offset="100%" stop-color="#395da1"/></linearGradient><linearGradient gradientUnits="userSpaceOnUse" id="E" x1="640.17" y1="536.29" x2="704.33" y2="536.29"><stop offset="0%" stop-color="#4faac4"/><stop offset=".2%" stop-color="#2f75b1"/><stop offset="100%" stop-color="#356eac"/></linearGradient><linearGradient gradientUnits="userSpaceOnUse" id="F" x1="663.1" y1="526.31" x2="704.83" y2="526.31"><stop offset="0%" stop-color="#4faac4"/><stop offset=".2%" stop-color="#2f81b6"/><stop offset="100%" stop-color="#3b5ea9"/></linearGradient><linearGradient gradientUnits="userSpaceOnUse" id="G" x1="663.15" y1="542.28" x2="704.83" y2="542.28"><stop offset="0%" stop-color="#4faac4"/><stop offset=".2%" stop-color="#1e3773"/><stop offset="100%" stop-color="#203370"/></linearGradient><linearGradient gradientUnits="userSpaceOnUse" id="H" x1="690.12" y1="545.76" x2="690.12" y2="522.89"><stop offset="0%" stop-color="#4faac4"/><stop offset=".2%" stop-color="#2c5a9a"/><stop offset="100%" stop-color="#374580"/></linearGradient><linearGradient gradientUnits="userSpaceOnUse" id="I" x1="633.03" y1="542.99" x2="680.56" y2="542.99"><stop offset="11.2%" stop-color="#38b1da"/><stop offset="100%" stop-color="#326fb5"/></linearGradient><path d="M63-220v92h138v28H63V0H30v-248h175v28H63" id="bx"/><path d="M30-248c118-7 216 8 213 122C240-48 200 0 122 0H30v-248zM63-27c89 8 146-16 146-99s-60-101-146-95v194" id="by"/><g id="J"><use transform="matrix(0.05,0,0,0.05,0,0)" xlink:href="#bx"/><use transform="matrix(0.05,0,0,0.05,10.950000000000001,0)" xlink:href="#bf"/><use transform="matrix(0.05,0,0,0.05,14.9,0)" xlink:href="#bv"/><use transform="matrix(0.05,0,0,0.05,24.900000000000002,0)" xlink:href="#bk"/><use transform="matrix(0.05,0,0,0.05,34.900000000000006,0)" xlink:href="#bd"/><use transform="matrix(0.05,0,0,0.05,44.900000000000006,0)" xlink:href="#bh"/><use transform="matrix(0.05,0,0,0.05,49.900000000000006,0)" xlink:href="#by"/></g><path d="M206 0h-36l-40-164L89 0H53L-1-190h32L70-26l43-164h34l41 164 42-164h31" id="bz"/><g id="K"><use transform="matrix(0.05,0,0,0.05,0,0)" xlink:href="#bx"/><use transform="matrix(0.05,0,0,0.05,10.950000000000001,0)" xlink:href="#bc"/><use transform="matrix(0.05,0,0,0.05,20.950000000000003,0)" xlink:href="#bf"/><use transform="matrix(0.05,0,0,0.05,24.900000000000002,0)" xlink:href="#bf"/><use transform="matrix(0.05,0,0,0.05,28.85,0)" xlink:href="#bc"/><use transform="matrix(0.05,0,0,0.05,38.85,0)" xlink:href="#bz"/></g><path d="M177-190C167-65 218 103 67 71c-23-6-38-20-44-43l32-5c15 47 100 32 89-28v-30C133-14 115 1 83 1 29 1 15-40 15-95c0-56 16-97 71-98 29-1 48 16 59 35 1-10 0-23 2-32h30zM94-22c36 0 50-32 50-73 0-42-14-75-50-75-39 0-46 34-46 75s6 73 46 73" id="bA"/><g id="L"><use transform="matrix(0.05,0,0,0.05,0,0)" xlink:href="#bf"/><use transform="matrix(0.05,0,0,0.05,3.95,0)" xlink:href="#bc"/><use transform="matrix(0.05,0,0,0.05,13.949999999999998,0)" xlink:href="#bA"/><use transform="matrix(0.05,0,0,0.05,23.95,0)" xlink:href="#bg"/></g><path d="M140-251c81 0 123 46 123 126C263-46 219 4 140 4 59 4 17-45 17-125s42-126 123-126zm0 227c63 0 89-41 89-101s-29-99-89-99c-61 0-89 39-89 99S79-25 140-24" id="bB"/><g id="M"><use transform="matrix(0.05,0,0,0.05,0,0)" xlink:href="#bB"/><use transform="matrix(0.05,0,0,0.05,14,0)" xlink:href="#bt"/><use transform="matrix(0.05,0,0,0.05,24,0)" xlink:href="#bg"/></g><g id="N"><use transform="matrix(0.05,0,0,0.05,0,0)" xlink:href="#bq"/><use transform="matrix(0.05,0,0,0.05,12,0)" xlink:href="#ba"/><use transform="matrix(0.05,0,0,0.05,22,0)" xlink:href="#bA"/><use transform="matrix(0.05,0,0,0.05,32,0)" xlink:href="#bk"/><use transform="matrix(0.05,0,0,0.05,42,0)" xlink:href="#by"/><use transform="matrix(0.05,0,0,0.05,54.95,0)" xlink:href="#bv"/><use transform="matrix(0.05,0,0,0.05,64.95,0)" xlink:href="#bh"/><use transform="matrix(0.05,0,0,0.05,69.95,0)" xlink:href="#bw"/></g><g id="O"><use transform="matrix(0.05,0,0,0.05,0,0)" xlink:href="#aY"/><use transform="matrix(0.05,0,0,0.05,12,0)" xlink:href="#bf"/><use transform="matrix(0.05,0,0,0.05,15.949999999999998,0)" xlink:href="#bk"/><use transform="matrix(0.05,0,0,0.05,25.950000000000003,0)" xlink:href="#bl"/><use transform="matrix(0.05,0,0,0.05,31.899999999999995,0)" xlink:href="#bh"/><use transform="matrix(0.05,0,0,0.05,36.9,0)" xlink:href="#bg"/></g><path d="M137 0h-34L2-248h35l83 218 83-218h36" id="bC"/><g id="P"><use transform="matrix(0.05,0,0,0.05,0,0)" xlink:href="#bC"/><use transform="matrix(0.05,0,0,0.05,11.65,0)" xlink:href="#bi"/><use transform="matrix(0.05,0,0,0.05,15.600000000000001,0)" xlink:href="#bk"/><use transform="matrix(0.05,0,0,0.05,25.6,0)" xlink:href="#bz"/></g><path d="M33 0v-248h34V0H33" id="bD"/><g id="Q"><use transform="matrix(0.05,0,0,0.05,0,0)" xlink:href="#bD"/><use transform="matrix(0.05,0,0,0.05,5,0)" xlink:href="#bd"/><use transform="matrix(0.05,0,0,0.05,15,0)" xlink:href="#bA"/><use transform="matrix(0.05,0,0,0.05,25,0)" xlink:href="#bk"/><use transform="matrix(0.05,0,0,0.05,35,0)" xlink:href="#bg"/><use transform="matrix(0.05,0,0,0.05,44,0)" xlink:href="#bh"/></g><g id="R"><use transform="matrix(0.05,0,0,0.05,0,0)" xlink:href="#bf"/><use transform="matrix(0.05,0,0,0.05,3.95,0)" xlink:href="#bc"/><use transform="matrix(0.05,0,0,0.05,13.949999999999998,0)" xlink:href="#bA"/><use transform="matrix(0.05,0,0,0.05,23.95,0)" xlink:href="#bg"/></g><linearGradient gradientUnits="userSpaceOnUse" id="S" x1="731.08" y1="969.11" x2="731.08" y2="1006.69"><stop offset="0%" stop-color="#f05a28"/><stop offset="100%" stop-color="#fbca0a"/></linearGradient><path d="M143 4C61 4 22-44 18-125c-5-107 100-154 193-111 17 8 29 25 37 43l-32 9c-13-25-37-40-76-40-61 0-88 39-88 99 0 61 29 100 91 101 35 0 62-11 79-27v-45h-74v-28h105v86C228-13 192 4 143 4" id="bE"/><path d="M101-234c-31-9-42 10-38 44h38v23H63V0H32v-167H5v-23h27c-7-52 17-82 69-68v24" id="bF"/><g id="T"><use transform="matrix(0.05,0,0,0.05,0,0)" xlink:href="#bE"/><use transform="matrix(0.05,0,0,0.05,14,0)" xlink:href="#bl"/><use transform="matrix(0.05,0,0,0.05,19.95,0)" xlink:href="#ba"/><use transform="matrix(0.05,0,0,0.05,29.950000000000003,0)" xlink:href="#bF"/><use transform="matrix(0.05,0,0,0.05,34.95,0)" xlink:href="#ba"/><use transform="matrix(0.05,0,0,0.05,44.95,0)" xlink:href="#bd"/><use transform="matrix(0.05,0,0,0.05,54.95,0)" xlink:href="#ba"/></g><path d="M153-248C145-148 188 4 80 4 36 3 13-21 6-62l32-5c4 25 16 42 43 43 27 0 39-20 39-49v-147H72v-28h81" id="bG"/><g id="U"><use transform="matrix(0.05,0,0,0.05,0,0)" xlink:href="#bG"/><use transform="matrix(0.05,0,0,0.05,9,0)" xlink:href="#ba"/><use transform="matrix(0.05,0,0,0.05,19,0)" xlink:href="#bk"/><use transform="matrix(0.05,0,0,0.05,29,0)" xlink:href="#bA"/><use transform="matrix(0.05,0,0,0.05,39,0)" xlink:href="#bk"/><use transform="matrix(0.05,0,0,0.05,49,0)" xlink:href="#bl"/></g><g id="V"><use transform="matrix(0.05,0,0,0.05,0,0)" xlink:href="#bq"/><use transform="matrix(0.05,0,0,0.05,12,0)" xlink:href="#bl"/><use transform="matrix(0.05,0,0,0.05,17.95,0)" xlink:href="#bc"/><use transform="matrix(0.05,0,0,0.05,27.950000000000003,0)" xlink:href="#aZ"/><use transform="matrix(0.05,0,0,0.05,42.9,0)" xlink:href="#bk"/><use transform="matrix(0.05,0,0,0.05,52.900000000000006,0)" xlink:href="#bh"/><use transform="matrix(0.05,0,0,0.05,57.900000000000006,0)" xlink:href="#bm"/><use transform="matrix(0.05,0,0,0.05,67.9,0)" xlink:href="#bk"/><use transform="matrix(0.05,0,0,0.05,77.9,0)" xlink:href="#bv"/><use transform="matrix(0.05,0,0,0.05,87.9,0)" xlink:href="#bg"/></g><g id="W"><use transform="matrix(0.05,0,0,0.05,0,0)" xlink:href="#bx"/><use transform="matrix(0.05,0,0,0.05,10.950000000000001,0)" xlink:href="#ba"/><use transform="matrix(0.05,0,0,0.05,20.950000000000003,0)" xlink:href="#bi"/><use transform="matrix(0.05,0,0,0.05,24.900000000000002,0)" xlink:href="#bf"/><use transform="matrix(0.05,0,0,0.05,28.85,0)" xlink:href="#bv"/><use transform="matrix(0.05,0,0,0.05,38.85,0)" xlink:href="#bl"/><use transform="matrix(0.05,0,0,0.05,44.800000000000004,0)" xlink:href="#bk"/><use transform="matrix(0.05,0,0,0.05,54.800000000000004,0)" xlink:href="#bg"/></g></defs></g></svg>